<?xml version="1.0" encoding="utf-8" standalone="no"?>
<!DOCTYPE svg PUBLIC "-//W3C//DTD SVG 1.1//EN"
  "http://www.w3.org/Graphics/SVG/1.1/DTD/svg11.dtd">
<svg xmlns:xlink="http://www.w3.org/1999/xlink" width="576pt" height="360pt" viewBox="0 0 576 360" xmlns="http://www.w3.org/2000/svg" version="1.1">
 <metadata>
  <rdf:RDF xmlns:dc="http://purl.org/dc/elements/1.1/" xmlns:cc="http://creativecommons.org/ns#" xmlns:rdf="http://www.w3.org/1999/02/22-rdf-syntax-ns#">
   <cc:Work>
    <dc:type rdf:resource="http://purl.org/dc/dcmitype/StillImage"/>
    <dc:date>2026-06-23T23:09:29.283754</dc:date>
    <dc:format>image/svg+xml</dc:format>
    <dc:creator>
     <cc:Agent>
      <dc:title>Matplotlib v3.10.8, https://matplotlib.org/</dc:title>
     </cc:Agent>
    </dc:creator>
   </cc:Work>
  </rdf:RDF>
 </metadata>
 <defs>
  <style type="text/css">*{stroke-linejoin: round; stroke-linecap: butt}</style>
 </defs>
 <g id="figure_1">
  <g id="patch_1">
   <path d="M 0 360 
L 576 360 
L 576 0 
L 0 0 
z
" style="fill: #111111"/>
  </g>
  <g id="axes_1">
   <g id="patch_2">
    <path d="M 34.904348 328.44976 
L 541.095652 328.44976 
L 541.095652 46.24649 
L 34.904348 46.24649 
z
" clip-path="url(#p176cf41b92)" style="fill: #111111; stroke: #292929; stroke-linejoin: miter"/>
   </g>
   <g id="patch_3">
    <path d="M 288 225.321065 
C 299.698362 225.321065 310.919165 221.319996 319.191156 214.199048 
C 327.463148 207.0781 332.110957 197.418666 332.110957 187.348125 
C 332.110957 177.277584 327.463148 167.61815 319.191156 160.497202 
C 310.919165 153.376254 299.698362 149.375185 288 149.375185 
C 276.301638 149.375185 265.080835 153.376254 256.808844 160.497202 
C 248.536852 167.61815 243.889043 177.277584 243.889043 187.348125 
C 243.889043 197.418666 248.536852 207.0781 256.808844 214.199048 
C 265.080835 221.319996 276.301638 225.321065 288 225.321065 
L 288 225.321065 
z
" clip-path="url(#p176cf41b92)" style="fill: none; stroke: #292929; stroke-linejoin: miter"/>
   </g>
   <g id="patch_4">
    <path d="M 34.904348 271.013094 
L 114.448696 271.013094 
L 114.448696 103.683156 
L 34.904348 103.683156 
L 34.904348 271.013094 
z
" clip-path="url(#p176cf41b92)" style="fill: none; stroke: #292929; stroke-linejoin: miter"/>
   </g>
   <g id="patch_5">
    <path d="M 461.551304 271.013094 
L 541.095652 271.013094 
L 541.095652 103.683156 
L 461.551304 103.683156 
L 461.551304 271.013094 
z
" clip-path="url(#p176cf41b92)" style="fill: none; stroke: #292929; stroke-linejoin: miter"/>
   </g>
   <g id="patch_6">
    <path d="M 34.904348 225.362565 
L 61.41913 225.362565 
L 61.41913 149.333685 
L 34.904348 149.333685 
L 34.904348 225.362565 
z
" clip-path="url(#p176cf41b92)" style="fill: none; stroke: #292929; stroke-linejoin: miter"/>
   </g>
   <g id="patch_7">
    <path d="M 514.58087 225.362565 
L 541.095652 225.362565 
L 541.095652 149.333685 
L 514.58087 149.333685 
L 514.58087 225.362565 
z
" clip-path="url(#p176cf41b92)" style="fill: none; stroke: #292929; stroke-linejoin: miter"/>
   </g>
   <g id="line2d_1">
    <path d="M 288 328.44976 
L 288 46.24649 
" clip-path="url(#p176cf41b92)" style="fill: none; stroke: #292929; stroke-width: 1.5; stroke-linecap: square"/>
   </g>
   <g id="patch_8">
    <path d="M 382.006957 225.362565 
L 461.551304 225.362565 
L 461.551304 149.333685 
L 382.006957 149.333685 
z
" clip-path="url(#p176cf41b92)" style="fill: #b5a58d; opacity: 0.3; stroke: #b5a58d; stroke-width: 2; stroke-linejoin: miter"/>
   </g>
   <g id="text_1">
    <!-- ZONE 14 -->
    <g style="fill: #b5a58d" transform="translate(396.772255 190.45875) scale(0.12 -0.12)">
     <defs>
      <path id="Arial-BoldMT-5a" d="M 69 0 
L 69 834 
L 2475 3806 
L 341 3806 
L 341 4581 
L 3694 4581 
L 3694 3863 
L 1184 772 
L 3791 772 
L 3791 0 
L 69 0 
z
" transform="scale(0.015625)"/>
      <path id="Arial-BoldMT-4f" d="M 278 2263 
Q 278 2963 488 3438 
Q 644 3788 914 4066 
Q 1184 4344 1506 4478 
Q 1934 4659 2494 4659 
Q 3506 4659 4114 4031 
Q 4722 3403 4722 2284 
Q 4722 1175 4119 548 
Q 3516 -78 2506 -78 
Q 1484 -78 881 545 
Q 278 1169 278 2263 
z
M 1231 2294 
Q 1231 1516 1590 1114 
Q 1950 713 2503 713 
Q 3056 713 3411 1111 
Q 3766 1509 3766 2306 
Q 3766 3094 3420 3481 
Q 3075 3869 2503 3869 
Q 1931 3869 1581 3476 
Q 1231 3084 1231 2294 
z
" transform="scale(0.015625)"/>
      <path id="Arial-BoldMT-4e" d="M 475 0 
L 475 4581 
L 1375 4581 
L 3250 1522 
L 3250 4581 
L 4109 4581 
L 4109 0 
L 3181 0 
L 1334 2988 
L 1334 0 
L 475 0 
z
" transform="scale(0.015625)"/>
      <path id="Arial-BoldMT-45" d="M 466 0 
L 466 4581 
L 3863 4581 
L 3863 3806 
L 1391 3806 
L 1391 2791 
L 3691 2791 
L 3691 2019 
L 1391 2019 
L 1391 772 
L 3950 772 
L 3950 0 
L 466 0 
z
" transform="scale(0.015625)"/>
      <path id="Arial-BoldMT-20" transform="scale(0.015625)"/>
      <path id="Arial-BoldMT-31" d="M 2519 0 
L 1641 0 
L 1641 3309 
Q 1159 2859 506 2644 
L 506 3441 
Q 850 3553 1253 3867 
Q 1656 4181 1806 4600 
L 2519 4600 
L 2519 0 
z
" transform="scale(0.015625)"/>
      <path id="Arial-BoldMT-34" d="M 1994 0 
L 1994 922 
L 119 922 
L 119 1691 
L 2106 4600 
L 2844 4600 
L 2844 1694 
L 3413 1694 
L 3413 922 
L 2844 922 
L 2844 0 
L 1994 0 
z
M 1994 1694 
L 1994 3259 
L 941 1694 
L 1994 1694 
z
" transform="scale(0.015625)"/>
     </defs>
     <use xlink:href="#Arial-BoldMT-5a"/>
     <use xlink:href="#Arial-BoldMT-4f" transform="translate(61.083984 0)"/>
     <use xlink:href="#Arial-BoldMT-4e" transform="translate(138.867188 0)"/>
     <use xlink:href="#Arial-BoldMT-45" transform="translate(211.083984 0)"/>
     <use xlink:href="#Arial-BoldMT-20" transform="translate(277.783203 0)"/>
     <use xlink:href="#Arial-BoldMT-31" transform="translate(305.566406 0)"/>
     <use xlink:href="#Arial-BoldMT-34" transform="translate(361.181641 0)"/>
    </g>
   </g>
   <g id="patch_9">
    <path d="M 325.941066 244.538442 
Q 372.969513 220.547649 419.00203 197.064914 
" style="fill: none; stroke-dasharray: 3.7,1.6; stroke-dashoffset: 0; stroke: #8c8c8c; stroke-linecap: round"/>
    <path d="M 414.53004 197.101021 
L 419.00203 197.064914 
L 416.347722 200.66417 
" style="fill: none; stroke-dasharray: 3.7,1.6; stroke-dashoffset: 0; stroke: #8c8c8c; stroke-linecap: round"/>
   </g>
   <g id="patch_10">
    <path d="M 325.941066 130.157808 
Q 372.969513 154.148601 419.00203 177.631336 
" style="fill: none; stroke-dasharray: 3.7,1.6; stroke-dashoffset: 0; stroke: #8c8c8c; stroke-linecap: round"/>
    <path d="M 416.347722 174.03208 
L 419.00203 177.631336 
L 414.53004 177.595229 
" style="fill: none; stroke-dasharray: 3.7,1.6; stroke-dashoffset: 0; stroke: #8c8c8c; stroke-linecap: round"/>
   </g>
   <g id="patch_11">
    <path d="M 397.317646 264.391245 
Q 409.123627 239.225263 420.454765 215.07147 
" style="fill: none; stroke-dasharray: 3.7,1.6; stroke-dashoffset: 0; stroke: #8c8c8c; stroke-linecap: round"/>
    <path d="M 416.94526 217.843361 
L 420.454765 215.07147 
L 420.566575 219.542208 
" style="fill: none; stroke-dasharray: 3.7,1.6; stroke-dashoffset: 0; stroke: #8c8c8c; stroke-linecap: round"/>
   </g>
   <g id="text_2">
    <!-- Targeting Zone 14 -->
    <g style="fill: #ebebeb" transform="translate(239.640938 19.49625) scale(0.12 -0.12)">
     <defs>
      <path id="ArialMT-54" d="M 1659 0 
L 1659 4041 
L 150 4041 
L 150 4581 
L 3781 4581 
L 3781 4041 
L 2266 4041 
L 2266 0 
L 1659 0 
z
" transform="scale(0.015625)"/>
      <path id="ArialMT-61" d="M 2588 409 
Q 2275 144 1986 34 
Q 1697 -75 1366 -75 
Q 819 -75 525 192 
Q 231 459 231 875 
Q 231 1119 342 1320 
Q 453 1522 633 1644 
Q 813 1766 1038 1828 
Q 1203 1872 1538 1913 
Q 2219 1994 2541 2106 
Q 2544 2222 2544 2253 
Q 2544 2597 2384 2738 
Q 2169 2928 1744 2928 
Q 1347 2928 1158 2789 
Q 969 2650 878 2297 
L 328 2372 
Q 403 2725 575 2942 
Q 747 3159 1072 3276 
Q 1397 3394 1825 3394 
Q 2250 3394 2515 3294 
Q 2781 3194 2906 3042 
Q 3031 2891 3081 2659 
Q 3109 2516 3109 2141 
L 3109 1391 
Q 3109 606 3145 398 
Q 3181 191 3288 0 
L 2700 0 
Q 2613 175 2588 409 
z
M 2541 1666 
Q 2234 1541 1622 1453 
Q 1275 1403 1131 1340 
Q 988 1278 909 1158 
Q 831 1038 831 891 
Q 831 666 1001 516 
Q 1172 366 1500 366 
Q 1825 366 2078 508 
Q 2331 650 2450 897 
Q 2541 1088 2541 1459 
L 2541 1666 
z
" transform="scale(0.015625)"/>
      <path id="ArialMT-72" d="M 416 0 
L 416 3319 
L 922 3319 
L 922 2816 
Q 1116 3169 1280 3281 
Q 1444 3394 1641 3394 
Q 1925 3394 2219 3213 
L 2025 2691 
Q 1819 2813 1613 2813 
Q 1428 2813 1281 2702 
Q 1134 2591 1072 2394 
Q 978 2094 978 1738 
L 978 0 
L 416 0 
z
" transform="scale(0.015625)"/>
      <path id="ArialMT-67" d="M 319 -275 
L 866 -356 
Q 900 -609 1056 -725 
Q 1266 -881 1628 -881 
Q 2019 -881 2231 -725 
Q 2444 -569 2519 -288 
Q 2563 -116 2559 434 
Q 2191 0 1641 0 
Q 956 0 581 494 
Q 206 988 206 1678 
Q 206 2153 378 2554 
Q 550 2956 876 3175 
Q 1203 3394 1644 3394 
Q 2231 3394 2613 2919 
L 2613 3319 
L 3131 3319 
L 3131 450 
Q 3131 -325 2973 -648 
Q 2816 -972 2473 -1159 
Q 2131 -1347 1631 -1347 
Q 1038 -1347 672 -1080 
Q 306 -813 319 -275 
z
M 784 1719 
Q 784 1066 1043 766 
Q 1303 466 1694 466 
Q 2081 466 2343 764 
Q 2606 1063 2606 1700 
Q 2606 2309 2336 2618 
Q 2066 2928 1684 2928 
Q 1309 2928 1046 2623 
Q 784 2319 784 1719 
z
" transform="scale(0.015625)"/>
      <path id="ArialMT-65" d="M 2694 1069 
L 3275 997 
Q 3138 488 2766 206 
Q 2394 -75 1816 -75 
Q 1088 -75 661 373 
Q 234 822 234 1631 
Q 234 2469 665 2931 
Q 1097 3394 1784 3394 
Q 2450 3394 2872 2941 
Q 3294 2488 3294 1666 
Q 3294 1616 3291 1516 
L 816 1516 
Q 847 969 1125 678 
Q 1403 388 1819 388 
Q 2128 388 2347 550 
Q 2566 713 2694 1069 
z
M 847 1978 
L 2700 1978 
Q 2663 2397 2488 2606 
Q 2219 2931 1791 2931 
Q 1403 2931 1139 2672 
Q 875 2413 847 1978 
z
" transform="scale(0.015625)"/>
      <path id="ArialMT-74" d="M 1650 503 
L 1731 6 
Q 1494 -44 1306 -44 
Q 1000 -44 831 53 
Q 663 150 594 308 
Q 525 466 525 972 
L 525 2881 
L 113 2881 
L 113 3319 
L 525 3319 
L 525 4141 
L 1084 4478 
L 1084 3319 
L 1650 3319 
L 1650 2881 
L 1084 2881 
L 1084 941 
Q 1084 700 1114 631 
Q 1144 563 1211 522 
Q 1278 481 1403 481 
Q 1497 481 1650 503 
z
" transform="scale(0.015625)"/>
      <path id="ArialMT-69" d="M 425 3934 
L 425 4581 
L 988 4581 
L 988 3934 
L 425 3934 
z
M 425 0 
L 425 3319 
L 988 3319 
L 988 0 
L 425 0 
z
" transform="scale(0.015625)"/>
      <path id="ArialMT-6e" d="M 422 0 
L 422 3319 
L 928 3319 
L 928 2847 
Q 1294 3394 1984 3394 
Q 2284 3394 2536 3286 
Q 2788 3178 2913 3003 
Q 3038 2828 3088 2588 
Q 3119 2431 3119 2041 
L 3119 0 
L 2556 0 
L 2556 2019 
Q 2556 2363 2490 2533 
Q 2425 2703 2258 2804 
Q 2091 2906 1866 2906 
Q 1506 2906 1245 2678 
Q 984 2450 984 1813 
L 984 0 
L 422 0 
z
" transform="scale(0.015625)"/>
      <path id="ArialMT-20" transform="scale(0.015625)"/>
      <path id="ArialMT-5a" d="M 128 0 
L 128 563 
L 2475 3497 
Q 2725 3809 2950 4041 
L 394 4041 
L 394 4581 
L 3675 4581 
L 3675 4041 
L 1103 863 
L 825 541 
L 3750 541 
L 3750 0 
L 128 0 
z
" transform="scale(0.015625)"/>
      <path id="ArialMT-6f" d="M 213 1659 
Q 213 2581 725 3025 
Q 1153 3394 1769 3394 
Q 2453 3394 2887 2945 
Q 3322 2497 3322 1706 
Q 3322 1066 3130 698 
Q 2938 331 2570 128 
Q 2203 -75 1769 -75 
Q 1072 -75 642 372 
Q 213 819 213 1659 
z
M 791 1659 
Q 791 1022 1069 705 
Q 1347 388 1769 388 
Q 2188 388 2466 706 
Q 2744 1025 2744 1678 
Q 2744 2294 2464 2611 
Q 2184 2928 1769 2928 
Q 1347 2928 1069 2612 
Q 791 2297 791 1659 
z
" transform="scale(0.015625)"/>
      <path id="ArialMT-31" d="M 2384 0 
L 1822 0 
L 1822 3584 
Q 1619 3391 1289 3197 
Q 959 3003 697 2906 
L 697 3450 
Q 1169 3672 1522 3987 
Q 1875 4303 2022 4600 
L 2384 4600 
L 2384 0 
z
" transform="scale(0.015625)"/>
      <path id="ArialMT-34" d="M 2069 0 
L 2069 1097 
L 81 1097 
L 81 1613 
L 2172 4581 
L 2631 4581 
L 2631 1613 
L 3250 1613 
L 3250 1097 
L 2631 1097 
L 2631 0 
L 2069 0 
z
M 2069 1613 
L 2069 3678 
L 634 1613 
L 2069 1613 
z
" transform="scale(0.015625)"/>
     </defs>
     <use xlink:href="#ArialMT-54"/>
     <use xlink:href="#ArialMT-61" transform="translate(49.958984 0)"/>
     <use xlink:href="#ArialMT-72" transform="translate(105.574219 0)"/>
     <use xlink:href="#ArialMT-67" transform="translate(138.875 0)"/>
     <use xlink:href="#ArialMT-65" transform="translate(194.490234 0)"/>
     <use xlink:href="#ArialMT-74" transform="translate(250.105469 0)"/>
     <use xlink:href="#ArialMT-69" transform="translate(277.888672 0)"/>
     <use xlink:href="#ArialMT-6e" transform="translate(300.105469 0)"/>
     <use xlink:href="#ArialMT-67" transform="translate(355.720703 0)"/>
     <use xlink:href="#ArialMT-20" transform="translate(411.335938 0)"/>
     <use xlink:href="#ArialMT-5a" transform="translate(439.119141 0)"/>
     <use xlink:href="#ArialMT-6f" transform="translate(500.203125 0)"/>
     <use xlink:href="#ArialMT-6e" transform="translate(555.818359 0)"/>
     <use xlink:href="#ArialMT-65" transform="translate(611.433594 0)"/>
     <use xlink:href="#ArialMT-20" transform="translate(667.048828 0)"/>
     <use xlink:href="#ArialMT-31" transform="translate(694.832031 0)"/>
     <use xlink:href="#ArialMT-34" transform="translate(750.447266 0)"/>
    </g>
   </g>
   <g id="PathCollection_1">
    <defs>
     <path id="m966eecbd37" d="M 0 5 
C 1.326016 5 2.597899 4.473168 3.535534 3.535534 
C 4.473168 2.597899 5 1.326016 5 0 
C 5 -1.326016 4.473168 -2.597899 3.535534 -3.535534 
C 2.597899 -4.473168 1.326016 -5 0 -5 
C -1.326016 -5 -2.597899 -4.473168 -3.535534 -3.535534 
C -4.473168 -2.597899 -5 -1.326016 -5 0 
C -5 1.326016 -4.473168 2.597899 -3.535534 3.535534 
C -2.597899 4.473168 -1.326016 5 0 5 
z
" style="stroke: #5a84b5"/>
    </defs>
    <g clip-path="url(#p176cf41b92)">
     <use xlink:href="#m966eecbd37" x="324.156522" y="245.448798" style="fill: #5a84b5; stroke: #5a84b5"/>
    </g>
   </g>
   <g id="PathCollection_2">
    <g clip-path="url(#p176cf41b92)">
     <use xlink:href="#m966eecbd37" x="324.156522" y="129.247452" style="fill: #5a84b5; stroke: #5a84b5"/>
    </g>
   </g>
   <g id="PathCollection_3">
    <g clip-path="url(#p176cf41b92)">
     <use xlink:href="#m966eecbd37" x="396.469565" y="266.199038" style="fill: #5a84b5; stroke: #5a84b5"/>
    </g>
   </g>
  </g>
 </g>
 <defs>
  <clipPath id="p176cf41b92">
   <rect x="10.8" y="25.49625" width="554.4" height="323.70375"/>
  </clipPath>
 </defs>
</svg>
