<?xml version="1.0" encoding="utf-8" standalone="no"?>
<!DOCTYPE svg PUBLIC "-//W3C//DTD SVG 1.1//EN"
  "http://www.w3.org/Graphics/SVG/1.1/DTD/svg11.dtd">
<svg xmlns:xlink="http://www.w3.org/1999/xlink" width="576pt" height="360pt" viewBox="0 0 576 360" xmlns="http://www.w3.org/2000/svg" version="1.1">
 <metadata>
  <rdf:RDF xmlns:dc="http://purl.org/dc/elements/1.1/" xmlns:cc="http://creativecommons.org/ns#" xmlns:rdf="http://www.w3.org/1999/02/22-rdf-syntax-ns#">
   <cc:Work>
    <dc:type rdf:resource="http://purl.org/dc/dcmitype/StillImage"/>
    <dc:date>2026-06-23T23:09:28.800340</dc:date>
    <dc:format>image/svg+xml</dc:format>
    <dc:creator>
     <cc:Agent>
      <dc:title>Matplotlib v3.10.8, https://matplotlib.org/</dc:title>
     </cc:Agent>
    </dc:creator>
   </cc:Work>
  </rdf:RDF>
 </metadata>
 <defs>
  <style type="text/css">*{stroke-linejoin: round; stroke-linecap: butt}</style>
 </defs>
 <g id="figure_1">
  <g id="patch_1">
   <path d="M 0 360 
L 576 360 
L 576 0 
L 0 0 
z
" style="fill: #111111"/>
  </g>
  <g id="axes_1">
   <g id="patch_2">
    <path d="M -543.6 416.638281 
L 565.2 416.638281 
L 565.2 -41.942031 
L -543.6 -41.942031 
z
" clip-path="url(#pb1ed3f9cb4)" style="fill: #111111; stroke: #292929; stroke-linejoin: miter"/>
   </g>
   <g id="patch_3">
    <path d="M 10.8 249.054152 
C 36.424984 249.054152 61.003885 242.552416 79.123486 230.980875 
C 97.243086 219.409335 107.424 203.712755 107.424 187.348125 
C 107.424 170.983495 97.243086 155.286915 79.123486 143.715375 
C 61.003885 132.143834 36.424984 125.642098 10.8 125.642098 
C -14.824984 125.642098 -39.403885 132.143834 -57.523486 143.715375 
C -75.643086 155.286915 -85.824 170.983495 -85.824 187.348125 
C -85.824 203.712755 -75.643086 219.409335 -57.523486 230.980875 
C -39.403885 242.552416 -14.824984 249.054152 10.8 249.054152 
L 10.8 249.054152 
z
" clip-path="url(#pb1ed3f9cb4)" style="fill: none; stroke: #292929; stroke-linejoin: miter"/>
   </g>
   <g id="patch_4">
    <path clip-path="url(#pb1ed3f9cb4)" style="fill: none; stroke: #292929; stroke-linejoin: miter"/>
   </g>
   <g id="patch_5">
    <path d="M 390.96 323.3037 
L 565.2 323.3037 
L 565.2 51.39255 
L 390.96 51.39255 
L 390.96 323.3037 
z
" clip-path="url(#pb1ed3f9cb4)" style="fill: none; stroke: #292929; stroke-linejoin: miter"/>
   </g>
   <g id="patch_6">
    <path clip-path="url(#pb1ed3f9cb4)" style="fill: none; stroke: #292929; stroke-linejoin: miter"/>
   </g>
   <g id="patch_7">
    <path d="M 507.12 249.121591 
L 565.2 249.121591 
L 565.2 125.574659 
L 507.12 125.574659 
L 507.12 249.121591 
z
" clip-path="url(#pb1ed3f9cb4)" style="fill: none; stroke: #292929; stroke-linejoin: miter"/>
   </g>
   <g id="line2d_1">
    <path d="M 10.8 361 
L 10.8 -1 
" clip-path="url(#pb1ed3f9cb4)" style="fill: none; stroke: #292929; stroke-width: 1.5; stroke-linecap: square"/>
   </g>
   <g id="line2d_2">
    <path d="M 248.4 187.348125 
L 459.6 133.3975 
" clip-path="url(#pb1ed3f9cb4)" style="fill: none; stroke-dasharray: 2,3.3; stroke-dashoffset: 0; stroke: #b5a58d; stroke-width: 2"/>
   </g>
   <g id="line2d_3">
    <path d="M 248.4 187.348125 
L 459.6 241.29875 
" clip-path="url(#pb1ed3f9cb4)" style="fill: none; stroke-dasharray: 2,3.3; stroke-dashoffset: 0; stroke: #b5a58d; stroke-width: 2"/>
   </g>
   <g id="text_1">
    <!-- Messi -->
    <g style="fill: #b5a58d" transform="translate(235.34375 173.860469) scale(0.1 -0.1)">
     <defs>
      <path id="ArialMT-4d" d="M 475 0 
L 475 4581 
L 1388 4581 
L 2472 1338 
Q 2622 884 2691 659 
Q 2769 909 2934 1394 
L 4031 4581 
L 4847 4581 
L 4847 0 
L 4263 0 
L 4263 3834 
L 2931 0 
L 2384 0 
L 1059 3900 
L 1059 0 
L 475 0 
z
" transform="scale(0.015625)"/>
      <path id="ArialMT-65" d="M 2694 1069 
L 3275 997 
Q 3138 488 2766 206 
Q 2394 -75 1816 -75 
Q 1088 -75 661 373 
Q 234 822 234 1631 
Q 234 2469 665 2931 
Q 1097 3394 1784 3394 
Q 2450 3394 2872 2941 
Q 3294 2488 3294 1666 
Q 3294 1616 3291 1516 
L 816 1516 
Q 847 969 1125 678 
Q 1403 388 1819 388 
Q 2128 388 2347 550 
Q 2566 713 2694 1069 
z
M 847 1978 
L 2700 1978 
Q 2663 2397 2488 2606 
Q 2219 2931 1791 2931 
Q 1403 2931 1139 2672 
Q 875 2413 847 1978 
z
" transform="scale(0.015625)"/>
      <path id="ArialMT-73" d="M 197 991 
L 753 1078 
Q 800 744 1014 566 
Q 1228 388 1613 388 
Q 2000 388 2187 545 
Q 2375 703 2375 916 
Q 2375 1106 2209 1216 
Q 2094 1291 1634 1406 
Q 1016 1563 777 1677 
Q 538 1791 414 1992 
Q 291 2194 291 2438 
Q 291 2659 392 2848 
Q 494 3038 669 3163 
Q 800 3259 1026 3326 
Q 1253 3394 1513 3394 
Q 1903 3394 2198 3281 
Q 2494 3169 2634 2976 
Q 2775 2784 2828 2463 
L 2278 2388 
Q 2241 2644 2061 2787 
Q 1881 2931 1553 2931 
Q 1166 2931 1000 2803 
Q 834 2675 834 2503 
Q 834 2394 903 2306 
Q 972 2216 1119 2156 
Q 1203 2125 1616 2013 
Q 2213 1853 2448 1751 
Q 2684 1650 2818 1456 
Q 2953 1263 2953 975 
Q 2953 694 2789 445 
Q 2625 197 2315 61 
Q 2006 -75 1616 -75 
Q 969 -75 630 194 
Q 291 463 197 991 
z
" transform="scale(0.015625)"/>
      <path id="ArialMT-69" d="M 425 3934 
L 425 4581 
L 988 4581 
L 988 3934 
L 425 3934 
z
M 425 0 
L 425 3319 
L 988 3319 
L 988 0 
L 425 0 
z
" transform="scale(0.015625)"/>
     </defs>
     <use xlink:href="#ArialMT-4d"/>
     <use xlink:href="#ArialMT-65" transform="translate(83.300781 0)"/>
     <use xlink:href="#ArialMT-73" transform="translate(138.916016 0)"/>
     <use xlink:href="#ArialMT-73" transform="translate(188.916016 0)"/>
     <use xlink:href="#ArialMT-69" transform="translate(238.916016 0)"/>
    </g>
   </g>
   <g id="patch_8">
    <path d="M 278.848301 161.945988 
Q 272.16026 170.488223 266.161452 178.150141 
" style="fill: none; stroke: #8c8c8c; stroke-linecap: round"/>
    <path d="M 270.202087 176.233563 
L 266.161452 178.150141 
L 267.05257 173.767686 
" style="fill: none; stroke: #8c8c8c; stroke-linecap: round"/>
   </g>
   <g id="patch_9">
    <path d="M 278.848301 212.750262 
Q 272.16026 204.208027 266.161452 196.546109 
" style="fill: none; stroke: #8c8c8c; stroke-linecap: round"/>
    <path d="M 267.05257 200.928564 
L 266.161452 196.546109 
L 270.202087 198.462687 
" style="fill: none; stroke: #8c8c8c; stroke-linecap: round"/>
   </g>
   <g id="patch_10">
    <path d="M 303.138428 93.429699 
Q 380.402311 113.166606 456.582945 132.626799 
" style="fill: none; stroke-dasharray: 3.7,1.6; stroke-dashoffset: 0; stroke: #5a84b5; stroke-linecap: round"/>
    <path d="M 453.202395 129.699022 
L 456.582945 132.626799 
L 452.212393 133.574573 
" style="fill: none; stroke-dasharray: 3.7,1.6; stroke-dashoffset: 0; stroke: #5a84b5; stroke-linecap: round"/>
   </g>
   <g id="patch_11">
    <path d="M 303.138428 281.266551 
Q 380.402311 261.529644 456.582945 242.069451 
" style="fill: none; stroke-dasharray: 3.7,1.6; stroke-dashoffset: 0; stroke: #5a84b5; stroke-linecap: round"/>
    <path d="M 452.212393 241.121677 
L 456.582945 242.069451 
L 453.202395 244.997228 
" style="fill: none; stroke-dasharray: 3.7,1.6; stroke-dashoffset: 0; stroke: #5a84b5; stroke-linecap: round"/>
   </g>
   <g id="text_2">
    <!-- La Pausa: Freezing the Defense to Open Passing Lanes -->
    <g style="fill: #ebebeb" transform="translate(137.91375 19.49625) scale(0.12 -0.12)">
     <defs>
      <path id="ArialMT-4c" d="M 469 0 
L 469 4581 
L 1075 4581 
L 1075 541 
L 3331 541 
L 3331 0 
L 469 0 
z
" transform="scale(0.015625)"/>
      <path id="ArialMT-61" d="M 2588 409 
Q 2275 144 1986 34 
Q 1697 -75 1366 -75 
Q 819 -75 525 192 
Q 231 459 231 875 
Q 231 1119 342 1320 
Q 453 1522 633 1644 
Q 813 1766 1038 1828 
Q 1203 1872 1538 1913 
Q 2219 1994 2541 2106 
Q 2544 2222 2544 2253 
Q 2544 2597 2384 2738 
Q 2169 2928 1744 2928 
Q 1347 2928 1158 2789 
Q 969 2650 878 2297 
L 328 2372 
Q 403 2725 575 2942 
Q 747 3159 1072 3276 
Q 1397 3394 1825 3394 
Q 2250 3394 2515 3294 
Q 2781 3194 2906 3042 
Q 3031 2891 3081 2659 
Q 3109 2516 3109 2141 
L 3109 1391 
Q 3109 606 3145 398 
Q 3181 191 3288 0 
L 2700 0 
Q 2613 175 2588 409 
z
M 2541 1666 
Q 2234 1541 1622 1453 
Q 1275 1403 1131 1340 
Q 988 1278 909 1158 
Q 831 1038 831 891 
Q 831 666 1001 516 
Q 1172 366 1500 366 
Q 1825 366 2078 508 
Q 2331 650 2450 897 
Q 2541 1088 2541 1459 
L 2541 1666 
z
" transform="scale(0.015625)"/>
      <path id="ArialMT-20" transform="scale(0.015625)"/>
      <path id="ArialMT-50" d="M 494 0 
L 494 4581 
L 2222 4581 
Q 2678 4581 2919 4538 
Q 3256 4481 3484 4323 
Q 3713 4166 3852 3881 
Q 3991 3597 3991 3256 
Q 3991 2672 3619 2267 
Q 3247 1863 2275 1863 
L 1100 1863 
L 1100 0 
L 494 0 
z
M 1100 2403 
L 2284 2403 
Q 2872 2403 3119 2622 
Q 3366 2841 3366 3238 
Q 3366 3525 3220 3729 
Q 3075 3934 2838 4000 
Q 2684 4041 2272 4041 
L 1100 4041 
L 1100 2403 
z
" transform="scale(0.015625)"/>
      <path id="ArialMT-75" d="M 2597 0 
L 2597 488 
Q 2209 -75 1544 -75 
Q 1250 -75 995 37 
Q 741 150 617 320 
Q 494 491 444 738 
Q 409 903 409 1263 
L 409 3319 
L 972 3319 
L 972 1478 
Q 972 1038 1006 884 
Q 1059 663 1231 536 
Q 1403 409 1656 409 
Q 1909 409 2131 539 
Q 2353 669 2445 892 
Q 2538 1116 2538 1541 
L 2538 3319 
L 3100 3319 
L 3100 0 
L 2597 0 
z
" transform="scale(0.015625)"/>
      <path id="ArialMT-3a" d="M 578 2678 
L 578 3319 
L 1219 3319 
L 1219 2678 
L 578 2678 
z
M 578 0 
L 578 641 
L 1219 641 
L 1219 0 
L 578 0 
z
" transform="scale(0.015625)"/>
      <path id="ArialMT-46" d="M 525 0 
L 525 4581 
L 3616 4581 
L 3616 4041 
L 1131 4041 
L 1131 2622 
L 3281 2622 
L 3281 2081 
L 1131 2081 
L 1131 0 
L 525 0 
z
" transform="scale(0.015625)"/>
      <path id="ArialMT-72" d="M 416 0 
L 416 3319 
L 922 3319 
L 922 2816 
Q 1116 3169 1280 3281 
Q 1444 3394 1641 3394 
Q 1925 3394 2219 3213 
L 2025 2691 
Q 1819 2813 1613 2813 
Q 1428 2813 1281 2702 
Q 1134 2591 1072 2394 
Q 978 2094 978 1738 
L 978 0 
L 416 0 
z
" transform="scale(0.015625)"/>
      <path id="ArialMT-7a" d="M 125 0 
L 125 456 
L 2238 2881 
Q 1878 2863 1603 2863 
L 250 2863 
L 250 3319 
L 2963 3319 
L 2963 2947 
L 1166 841 
L 819 456 
Q 1197 484 1528 484 
L 3063 484 
L 3063 0 
L 125 0 
z
" transform="scale(0.015625)"/>
      <path id="ArialMT-6e" d="M 422 0 
L 422 3319 
L 928 3319 
L 928 2847 
Q 1294 3394 1984 3394 
Q 2284 3394 2536 3286 
Q 2788 3178 2913 3003 
Q 3038 2828 3088 2588 
Q 3119 2431 3119 2041 
L 3119 0 
L 2556 0 
L 2556 2019 
Q 2556 2363 2490 2533 
Q 2425 2703 2258 2804 
Q 2091 2906 1866 2906 
Q 1506 2906 1245 2678 
Q 984 2450 984 1813 
L 984 0 
L 422 0 
z
" transform="scale(0.015625)"/>
      <path id="ArialMT-67" d="M 319 -275 
L 866 -356 
Q 900 -609 1056 -725 
Q 1266 -881 1628 -881 
Q 2019 -881 2231 -725 
Q 2444 -569 2519 -288 
Q 2563 -116 2559 434 
Q 2191 0 1641 0 
Q 956 0 581 494 
Q 206 988 206 1678 
Q 206 2153 378 2554 
Q 550 2956 876 3175 
Q 1203 3394 1644 3394 
Q 2231 3394 2613 2919 
L 2613 3319 
L 3131 3319 
L 3131 450 
Q 3131 -325 2973 -648 
Q 2816 -972 2473 -1159 
Q 2131 -1347 1631 -1347 
Q 1038 -1347 672 -1080 
Q 306 -813 319 -275 
z
M 784 1719 
Q 784 1066 1043 766 
Q 1303 466 1694 466 
Q 2081 466 2343 764 
Q 2606 1063 2606 1700 
Q 2606 2309 2336 2618 
Q 2066 2928 1684 2928 
Q 1309 2928 1046 2623 
Q 784 2319 784 1719 
z
" transform="scale(0.015625)"/>
      <path id="ArialMT-74" d="M 1650 503 
L 1731 6 
Q 1494 -44 1306 -44 
Q 1000 -44 831 53 
Q 663 150 594 308 
Q 525 466 525 972 
L 525 2881 
L 113 2881 
L 113 3319 
L 525 3319 
L 525 4141 
L 1084 4478 
L 1084 3319 
L 1650 3319 
L 1650 2881 
L 1084 2881 
L 1084 941 
Q 1084 700 1114 631 
Q 1144 563 1211 522 
Q 1278 481 1403 481 
Q 1497 481 1650 503 
z
" transform="scale(0.015625)"/>
      <path id="ArialMT-68" d="M 422 0 
L 422 4581 
L 984 4581 
L 984 2938 
Q 1378 3394 1978 3394 
Q 2347 3394 2619 3248 
Q 2891 3103 3008 2847 
Q 3125 2591 3125 2103 
L 3125 0 
L 2563 0 
L 2563 2103 
Q 2563 2525 2380 2717 
Q 2197 2909 1863 2909 
Q 1613 2909 1392 2779 
Q 1172 2650 1078 2428 
Q 984 2206 984 1816 
L 984 0 
L 422 0 
z
" transform="scale(0.015625)"/>
      <path id="ArialMT-44" d="M 494 0 
L 494 4581 
L 2072 4581 
Q 2606 4581 2888 4516 
Q 3281 4425 3559 4188 
Q 3922 3881 4101 3404 
Q 4281 2928 4281 2316 
Q 4281 1794 4159 1391 
Q 4038 988 3847 723 
Q 3656 459 3429 307 
Q 3203 156 2883 78 
Q 2563 0 2147 0 
L 494 0 
z
M 1100 541 
L 2078 541 
Q 2531 541 2789 625 
Q 3047 709 3200 863 
Q 3416 1078 3536 1442 
Q 3656 1806 3656 2325 
Q 3656 3044 3420 3430 
Q 3184 3816 2847 3947 
Q 2603 4041 2063 4041 
L 1100 4041 
L 1100 541 
z
" transform="scale(0.015625)"/>
      <path id="ArialMT-66" d="M 556 0 
L 556 2881 
L 59 2881 
L 59 3319 
L 556 3319 
L 556 3672 
Q 556 4006 616 4169 
Q 697 4388 901 4523 
Q 1106 4659 1475 4659 
Q 1713 4659 2000 4603 
L 1916 4113 
Q 1741 4144 1584 4144 
Q 1328 4144 1222 4034 
Q 1116 3925 1116 3625 
L 1116 3319 
L 1763 3319 
L 1763 2881 
L 1116 2881 
L 1116 0 
L 556 0 
z
" transform="scale(0.015625)"/>
      <path id="ArialMT-6f" d="M 213 1659 
Q 213 2581 725 3025 
Q 1153 3394 1769 3394 
Q 2453 3394 2887 2945 
Q 3322 2497 3322 1706 
Q 3322 1066 3130 698 
Q 2938 331 2570 128 
Q 2203 -75 1769 -75 
Q 1072 -75 642 372 
Q 213 819 213 1659 
z
M 791 1659 
Q 791 1022 1069 705 
Q 1347 388 1769 388 
Q 2188 388 2466 706 
Q 2744 1025 2744 1678 
Q 2744 2294 2464 2611 
Q 2184 2928 1769 2928 
Q 1347 2928 1069 2612 
Q 791 2297 791 1659 
z
" transform="scale(0.015625)"/>
      <path id="ArialMT-4f" d="M 309 2231 
Q 309 3372 921 4017 
Q 1534 4663 2503 4663 
Q 3138 4663 3647 4359 
Q 4156 4056 4423 3514 
Q 4691 2972 4691 2284 
Q 4691 1588 4409 1038 
Q 4128 488 3612 205 
Q 3097 -78 2500 -78 
Q 1853 -78 1343 234 
Q 834 547 571 1087 
Q 309 1628 309 2231 
z
M 934 2222 
Q 934 1394 1379 917 
Q 1825 441 2497 441 
Q 3181 441 3623 922 
Q 4066 1403 4066 2288 
Q 4066 2847 3877 3264 
Q 3688 3681 3323 3911 
Q 2959 4141 2506 4141 
Q 1863 4141 1398 3698 
Q 934 3256 934 2222 
z
" transform="scale(0.015625)"/>
      <path id="ArialMT-70" d="M 422 -1272 
L 422 3319 
L 934 3319 
L 934 2888 
Q 1116 3141 1344 3267 
Q 1572 3394 1897 3394 
Q 2322 3394 2647 3175 
Q 2972 2956 3137 2557 
Q 3303 2159 3303 1684 
Q 3303 1175 3120 767 
Q 2938 359 2589 142 
Q 2241 -75 1856 -75 
Q 1575 -75 1351 44 
Q 1128 163 984 344 
L 984 -1272 
L 422 -1272 
z
M 931 1641 
Q 931 1000 1190 694 
Q 1450 388 1819 388 
Q 2194 388 2461 705 
Q 2728 1022 2728 1688 
Q 2728 2322 2467 2637 
Q 2206 2953 1844 2953 
Q 1484 2953 1207 2617 
Q 931 2281 931 1641 
z
" transform="scale(0.015625)"/>
     </defs>
     <use xlink:href="#ArialMT-4c"/>
     <use xlink:href="#ArialMT-61" transform="translate(55.615234 0)"/>
     <use xlink:href="#ArialMT-20" transform="translate(111.230469 0)"/>
     <use xlink:href="#ArialMT-50" transform="translate(139.013672 0)"/>
     <use xlink:href="#ArialMT-61" transform="translate(205.712891 0)"/>
     <use xlink:href="#ArialMT-75" transform="translate(261.328125 0)"/>
     <use xlink:href="#ArialMT-73" transform="translate(316.943359 0)"/>
     <use xlink:href="#ArialMT-61" transform="translate(366.943359 0)"/>
     <use xlink:href="#ArialMT-3a" transform="translate(422.558594 0)"/>
     <use xlink:href="#ArialMT-20" transform="translate(450.341797 0)"/>
     <use xlink:href="#ArialMT-46" transform="translate(478.125 0)"/>
     <use xlink:href="#ArialMT-72" transform="translate(539.208984 0)"/>
     <use xlink:href="#ArialMT-65" transform="translate(572.509766 0)"/>
     <use xlink:href="#ArialMT-65" transform="translate(628.125 0)"/>
     <use xlink:href="#ArialMT-7a" transform="translate(683.740234 0)"/>
     <use xlink:href="#ArialMT-69" transform="translate(733.740234 0)"/>
     <use xlink:href="#ArialMT-6e" transform="translate(755.957031 0)"/>
     <use xlink:href="#ArialMT-67" transform="translate(811.572266 0)"/>
     <use xlink:href="#ArialMT-20" transform="translate(867.1875 0)"/>
     <use xlink:href="#ArialMT-74" transform="translate(894.970703 0)"/>
     <use xlink:href="#ArialMT-68" transform="translate(922.753906 0)"/>
     <use xlink:href="#ArialMT-65" transform="translate(978.369141 0)"/>
     <use xlink:href="#ArialMT-20" transform="translate(1033.984375 0)"/>
     <use xlink:href="#ArialMT-44" transform="translate(1061.767578 0)"/>
     <use xlink:href="#ArialMT-65" transform="translate(1133.984375 0)"/>
     <use xlink:href="#ArialMT-66" transform="translate(1189.599609 0)"/>
     <use xlink:href="#ArialMT-65" transform="translate(1217.382812 0)"/>
     <use xlink:href="#ArialMT-6e" transform="translate(1272.998047 0)"/>
     <use xlink:href="#ArialMT-73" transform="translate(1328.613281 0)"/>
     <use xlink:href="#ArialMT-65" transform="translate(1378.613281 0)"/>
     <use xlink:href="#ArialMT-20" transform="translate(1434.228516 0)"/>
     <use xlink:href="#ArialMT-74" transform="translate(1462.011719 0)"/>
     <use xlink:href="#ArialMT-6f" transform="translate(1489.794922 0)"/>
     <use xlink:href="#ArialMT-20" transform="translate(1545.410156 0)"/>
     <use xlink:href="#ArialMT-4f" transform="translate(1573.193359 0)"/>
     <use xlink:href="#ArialMT-70" transform="translate(1650.976562 0)"/>
     <use xlink:href="#ArialMT-65" transform="translate(1706.591797 0)"/>
     <use xlink:href="#ArialMT-6e" transform="translate(1762.207031 0)"/>
     <use xlink:href="#ArialMT-20" transform="translate(1817.822266 0)"/>
     <use xlink:href="#ArialMT-50" transform="translate(1845.605469 0)"/>
     <use xlink:href="#ArialMT-61" transform="translate(1912.304688 0)"/>
     <use xlink:href="#ArialMT-73" transform="translate(1967.919922 0)"/>
     <use xlink:href="#ArialMT-73" transform="translate(2017.919922 0)"/>
     <use xlink:href="#ArialMT-69" transform="translate(2067.919922 0)"/>
     <use xlink:href="#ArialMT-6e" transform="translate(2090.136719 0)"/>
     <use xlink:href="#ArialMT-67" transform="translate(2145.751953 0)"/>
     <use xlink:href="#ArialMT-20" transform="translate(2201.367188 0)"/>
     <use xlink:href="#ArialMT-4c" transform="translate(2229.150391 0)"/>
     <use xlink:href="#ArialMT-61" transform="translate(2284.765625 0)"/>
     <use xlink:href="#ArialMT-6e" transform="translate(2340.380859 0)"/>
     <use xlink:href="#ArialMT-65" transform="translate(2395.996094 0)"/>
     <use xlink:href="#ArialMT-73" transform="translate(2451.611328 0)"/>
    </g>
   </g>
   <g id="PathCollection_1">
    <defs>
     <path id="m42c7b9e5a6" d="M -6.123724 6.123724 
L 6.123724 6.123724 
L 6.123724 -6.123724 
L -6.123724 -6.123724 
z
" style="stroke: #ff5555"/>
    </defs>
    <g clip-path="url(#pb1ed3f9cb4)">
     <use xlink:href="#m42c7b9e5a6" x="354" y="146.885156" style="fill: #ff5555; stroke: #ff5555"/>
    </g>
   </g>
   <g id="PathCollection_2">
    <g clip-path="url(#pb1ed3f9cb4)">
     <use xlink:href="#m42c7b9e5a6" x="354" y="227.811094" style="fill: #ff5555; stroke: #ff5555"/>
    </g>
   </g>
   <g id="PathCollection_3">
    <g clip-path="url(#pb1ed3f9cb4)">
     <use xlink:href="#m42c7b9e5a6" x="280.08" y="160.372812" style="fill: #ff5555; stroke: #ff5555"/>
    </g>
   </g>
   <g id="PathCollection_4">
    <g clip-path="url(#pb1ed3f9cb4)">
     <use xlink:href="#m42c7b9e5a6" x="280.08" y="214.323437" style="fill: #ff5555; stroke: #ff5555"/>
    </g>
   </g>
   <g id="PathCollection_5">
    <defs>
     <path id="m5d3462ed98" d="M 0 6.123724 
C 1.624031 6.123724 3.181764 5.47849 4.330127 4.330127 
C 5.47849 3.181764 6.123724 1.624031 6.123724 0 
C 6.123724 -1.624031 5.47849 -3.181764 4.330127 -4.330127 
C 3.181764 -5.47849 1.624031 -6.123724 0 -6.123724 
C -1.624031 -6.123724 -3.181764 -5.47849 -4.330127 -4.330127 
C -5.47849 -3.181764 -6.123724 -1.624031 -6.123724 0 
C -6.123724 1.624031 -5.47849 3.181764 -4.330127 4.330127 
C -3.181764 5.47849 -1.624031 6.123724 0 6.123724 
z
" style="stroke: #5a84b5"/>
    </defs>
    <g clip-path="url(#pb1ed3f9cb4)">
     <use xlink:href="#m5d3462ed98" x="301.2" y="92.934531" style="fill: #5a84b5; stroke: #5a84b5"/>
    </g>
   </g>
   <g id="PathCollection_6">
    <g clip-path="url(#pb1ed3f9cb4)">
     <use xlink:href="#m5d3462ed98" x="301.2" y="281.761719" style="fill: #5a84b5; stroke: #5a84b5"/>
    </g>
   </g>
   <g id="PathCollection_7">
    <defs>
     <path id="mdb674f0ba2" d="M 0 7.071068 
C 1.875269 7.071068 3.673985 6.326016 5 5 
C 6.326016 3.673985 7.071068 1.875269 7.071068 0 
C 7.071068 -1.875269 6.326016 -3.673985 5 -5 
C 3.673985 -6.326016 1.875269 -7.071068 0 -7.071068 
C -1.875269 -7.071068 -3.673985 -6.326016 -5 -5 
C -6.326016 -3.673985 -7.071068 -1.875269 -7.071068 0 
C -7.071068 1.875269 -6.326016 3.673985 -5 5 
C -3.673985 6.326016 -1.875269 7.071068 0 7.071068 
z
" style="stroke: #b5a58d"/>
    </defs>
    <g clip-path="url(#pb1ed3f9cb4)">
     <use xlink:href="#mdb674f0ba2" x="248.4" y="187.348125" style="fill: #b5a58d; stroke: #b5a58d"/>
    </g>
   </g>
  </g>
 </g>
 <defs>
  <clipPath id="pb1ed3f9cb4">
   <rect x="10.8" y="25.49625" width="554.4" height="323.70375"/>
  </clipPath>
 </defs>
</svg>
