<?xml version="1.0" encoding="utf-8" standalone="no"?>
<!DOCTYPE svg PUBLIC "-//W3C//DTD SVG 1.1//EN"
  "http://www.w3.org/Graphics/SVG/1.1/DTD/svg11.dtd">
<svg xmlns:xlink="http://www.w3.org/1999/xlink" width="576pt" height="360pt" viewBox="0 0 576 360" xmlns="http://www.w3.org/2000/svg" version="1.1">
 <metadata>
  <rdf:RDF xmlns:dc="http://purl.org/dc/elements/1.1/" xmlns:cc="http://creativecommons.org/ns#" xmlns:rdf="http://www.w3.org/1999/02/22-rdf-syntax-ns#">
   <cc:Work>
    <dc:type rdf:resource="http://purl.org/dc/dcmitype/StillImage"/>
    <dc:date>2026-06-23T23:09:29.136659</dc:date>
    <dc:format>image/svg+xml</dc:format>
    <dc:creator>
     <cc:Agent>
      <dc:title>Matplotlib v3.10.8, https://matplotlib.org/</dc:title>
     </cc:Agent>
    </dc:creator>
   </cc:Work>
  </rdf:RDF>
 </metadata>
 <defs>
  <style type="text/css">*{stroke-linejoin: round; stroke-linecap: butt}</style>
 </defs>
 <g id="figure_1">
  <g id="patch_1">
   <path d="M 0 360 
L 576 360 
L 576 0 
L 0 0 
z
" style="fill: #111111"/>
  </g>
  <g id="axes_1">
   <g id="patch_2">
    <path d="M -543.6 416.638281 
L 565.2 416.638281 
L 565.2 -41.942031 
L -543.6 -41.942031 
z
" clip-path="url(#p6e1f483439)" style="fill: #111111; stroke: #292929; stroke-linejoin: miter"/>
   </g>
   <g id="patch_3">
    <path d="M 10.8 249.054152 
C 36.424984 249.054152 61.003885 242.552416 79.123486 230.980875 
C 97.243086 219.409335 107.424 203.712755 107.424 187.348125 
C 107.424 170.983495 97.243086 155.286915 79.123486 143.715375 
C 61.003885 132.143834 36.424984 125.642098 10.8 125.642098 
C -14.824984 125.642098 -39.403885 132.143834 -57.523486 143.715375 
C -75.643086 155.286915 -85.824 170.983495 -85.824 187.348125 
C -85.824 203.712755 -75.643086 219.409335 -57.523486 230.980875 
C -39.403885 242.552416 -14.824984 249.054152 10.8 249.054152 
L 10.8 249.054152 
z
" clip-path="url(#p6e1f483439)" style="fill: none; stroke: #292929; stroke-linejoin: miter"/>
   </g>
   <g id="patch_4">
    <path clip-path="url(#p6e1f483439)" style="fill: none; stroke: #292929; stroke-linejoin: miter"/>
   </g>
   <g id="patch_5">
    <path d="M 390.96 323.3037 
L 565.2 323.3037 
L 565.2 51.39255 
L 390.96 51.39255 
L 390.96 323.3037 
z
" clip-path="url(#p6e1f483439)" style="fill: none; stroke: #292929; stroke-linejoin: miter"/>
   </g>
   <g id="patch_6">
    <path clip-path="url(#p6e1f483439)" style="fill: none; stroke: #292929; stroke-linejoin: miter"/>
   </g>
   <g id="patch_7">
    <path d="M 507.12 249.121591 
L 565.2 249.121591 
L 565.2 125.574659 
L 507.12 125.574659 
L 507.12 249.121591 
z
" clip-path="url(#p6e1f483439)" style="fill: none; stroke: #292929; stroke-linejoin: miter"/>
   </g>
   <g id="line2d_1">
    <path d="M 10.8 361 
L 10.8 -1 
" clip-path="url(#p6e1f483439)" style="fill: none; stroke: #292929; stroke-width: 1.5; stroke-linecap: square"/>
   </g>
   <g id="line2d_2">
    <path d="M 142.8 315.480859 
L 406.8 146.885156 
" clip-path="url(#p6e1f483439)" style="fill: none; stroke-dasharray: 2,3.3; stroke-dashoffset: 0; stroke: #b5a58d; stroke-width: 2"/>
   </g>
   <g id="text_1">
    <!-- Messi -->
    <g style="fill: #b5a58d" transform="translate(129.74375 335.712344) scale(0.1 -0.1)">
     <defs>
      <path id="ArialMT-4d" d="M 475 0 
L 475 4581 
L 1388 4581 
L 2472 1338 
Q 2622 884 2691 659 
Q 2769 909 2934 1394 
L 4031 4581 
L 4847 4581 
L 4847 0 
L 4263 0 
L 4263 3834 
L 2931 0 
L 2384 0 
L 1059 3900 
L 1059 0 
L 475 0 
z
" transform="scale(0.015625)"/>
      <path id="ArialMT-65" d="M 2694 1069 
L 3275 997 
Q 3138 488 2766 206 
Q 2394 -75 1816 -75 
Q 1088 -75 661 373 
Q 234 822 234 1631 
Q 234 2469 665 2931 
Q 1097 3394 1784 3394 
Q 2450 3394 2872 2941 
Q 3294 2488 3294 1666 
Q 3294 1616 3291 1516 
L 816 1516 
Q 847 969 1125 678 
Q 1403 388 1819 388 
Q 2128 388 2347 550 
Q 2566 713 2694 1069 
z
M 847 1978 
L 2700 1978 
Q 2663 2397 2488 2606 
Q 2219 2931 1791 2931 
Q 1403 2931 1139 2672 
Q 875 2413 847 1978 
z
" transform="scale(0.015625)"/>
      <path id="ArialMT-73" d="M 197 991 
L 753 1078 
Q 800 744 1014 566 
Q 1228 388 1613 388 
Q 2000 388 2187 545 
Q 2375 703 2375 916 
Q 2375 1106 2209 1216 
Q 2094 1291 1634 1406 
Q 1016 1563 777 1677 
Q 538 1791 414 1992 
Q 291 2194 291 2438 
Q 291 2659 392 2848 
Q 494 3038 669 3163 
Q 800 3259 1026 3326 
Q 1253 3394 1513 3394 
Q 1903 3394 2198 3281 
Q 2494 3169 2634 2976 
Q 2775 2784 2828 2463 
L 2278 2388 
Q 2241 2644 2061 2787 
Q 1881 2931 1553 2931 
Q 1166 2931 1000 2803 
Q 834 2675 834 2503 
Q 834 2394 903 2306 
Q 972 2216 1119 2156 
Q 1203 2125 1616 2013 
Q 2213 1853 2448 1751 
Q 2684 1650 2818 1456 
Q 2953 1263 2953 975 
Q 2953 694 2789 445 
Q 2625 197 2315 61 
Q 2006 -75 1616 -75 
Q 969 -75 630 194 
Q 291 463 197 991 
z
" transform="scale(0.015625)"/>
      <path id="ArialMT-69" d="M 425 3934 
L 425 4581 
L 988 4581 
L 988 3934 
L 425 3934 
z
M 425 0 
L 425 3319 
L 988 3319 
L 988 0 
L 425 0 
z
" transform="scale(0.015625)"/>
     </defs>
     <use xlink:href="#ArialMT-4d"/>
     <use xlink:href="#ArialMT-65" transform="translate(83.300781 0)"/>
     <use xlink:href="#ArialMT-73" transform="translate(138.916016 0)"/>
     <use xlink:href="#ArialMT-73" transform="translate(188.916016 0)"/>
     <use xlink:href="#ArialMT-69" transform="translate(238.916016 0)"/>
    </g>
   </g>
   <g id="patch_8">
    <path d="M 246.494766 282.370079 
Q 206.161196 295.248993 166.892682 307.787824 
" style="fill: none; stroke: #8c8c8c; stroke-linecap: round"/>
    <path d="M 171.3115 308.476336 
L 166.892682 307.787824 
L 170.094782 304.665877 
" style="fill: none; stroke: #8c8c8c; stroke-linecap: round"/>
   </g>
   <g id="patch_9">
    <path d="M 194.732461 216.124028 
Q 174.479929 258.158467 154.712685 299.185685 
" style="fill: none; stroke: #8c8c8c; stroke-linecap: round"/>
    <path d="M 158.250676 296.450247 
L 154.712685 299.185685 
L 154.64713 294.714029 
" style="fill: none; stroke: #8c8c8c; stroke-linecap: round"/>
   </g>
   <g id="patch_10">
    <path d="M 320.501777 248.871973 
Q 248.402188 281.760721 177.319801 314.185464 
" style="fill: none; stroke: #8c8c8c; stroke-linecap: round"/>
    <path d="M 181.789089 314.345019 
L 177.319801 314.185464 
L 180.129018 310.705766 
" style="fill: none; stroke: #8c8c8c; stroke-linecap: round"/>
   </g>
   <g id="text_2">
    <!-- Alvarez -->
    <g style="fill: #5a84b5" transform="translate(200.048125 92.934531) scale(0.1 -0.1)">
     <defs>
      <path id="ArialMT-41" d="M -9 0 
L 1750 4581 
L 2403 4581 
L 4278 0 
L 3588 0 
L 3053 1388 
L 1138 1388 
L 634 0 
L -9 0 
z
M 1313 1881 
L 2866 1881 
L 2388 3150 
Q 2169 3728 2063 4100 
Q 1975 3659 1816 3225 
L 1313 1881 
z
" transform="scale(0.015625)"/>
      <path id="ArialMT-6c" d="M 409 0 
L 409 4581 
L 972 4581 
L 972 0 
L 409 0 
z
" transform="scale(0.015625)"/>
      <path id="ArialMT-76" d="M 1344 0 
L 81 3319 
L 675 3319 
L 1388 1331 
Q 1503 1009 1600 663 
Q 1675 925 1809 1294 
L 2547 3319 
L 3125 3319 
L 1869 0 
L 1344 0 
z
" transform="scale(0.015625)"/>
      <path id="ArialMT-61" d="M 2588 409 
Q 2275 144 1986 34 
Q 1697 -75 1366 -75 
Q 819 -75 525 192 
Q 231 459 231 875 
Q 231 1119 342 1320 
Q 453 1522 633 1644 
Q 813 1766 1038 1828 
Q 1203 1872 1538 1913 
Q 2219 1994 2541 2106 
Q 2544 2222 2544 2253 
Q 2544 2597 2384 2738 
Q 2169 2928 1744 2928 
Q 1347 2928 1158 2789 
Q 969 2650 878 2297 
L 328 2372 
Q 403 2725 575 2942 
Q 747 3159 1072 3276 
Q 1397 3394 1825 3394 
Q 2250 3394 2515 3294 
Q 2781 3194 2906 3042 
Q 3031 2891 3081 2659 
Q 3109 2516 3109 2141 
L 3109 1391 
Q 3109 606 3145 398 
Q 3181 191 3288 0 
L 2700 0 
Q 2613 175 2588 409 
z
M 2541 1666 
Q 2234 1541 1622 1453 
Q 1275 1403 1131 1340 
Q 988 1278 909 1158 
Q 831 1038 831 891 
Q 831 666 1001 516 
Q 1172 366 1500 366 
Q 1825 366 2078 508 
Q 2331 650 2450 897 
Q 2541 1088 2541 1459 
L 2541 1666 
z
" transform="scale(0.015625)"/>
      <path id="ArialMT-72" d="M 416 0 
L 416 3319 
L 922 3319 
L 922 2816 
Q 1116 3169 1280 3281 
Q 1444 3394 1641 3394 
Q 1925 3394 2219 3213 
L 2025 2691 
Q 1819 2813 1613 2813 
Q 1428 2813 1281 2702 
Q 1134 2591 1072 2394 
Q 978 2094 978 1738 
L 978 0 
L 416 0 
z
" transform="scale(0.015625)"/>
      <path id="ArialMT-7a" d="M 125 0 
L 125 456 
L 2238 2881 
Q 1878 2863 1603 2863 
L 250 2863 
L 250 3319 
L 2963 3319 
L 2963 2947 
L 1166 841 
L 819 456 
Q 1197 484 1528 484 
L 3063 484 
L 3063 0 
L 125 0 
z
" transform="scale(0.015625)"/>
     </defs>
     <use xlink:href="#ArialMT-41"/>
     <use xlink:href="#ArialMT-6c" transform="translate(66.699219 0)"/>
     <use xlink:href="#ArialMT-76" transform="translate(88.916016 0)"/>
     <use xlink:href="#ArialMT-61" transform="translate(138.916016 0)"/>
     <use xlink:href="#ArialMT-72" transform="translate(194.53125 0)"/>
     <use xlink:href="#ArialMT-65" transform="translate(227.832031 0)"/>
     <use xlink:href="#ArialMT-7a" transform="translate(283.447266 0)"/>
    </g>
   </g>
   <g id="patch_11">
    <path d="M 218.689365 113.51537 
Q 311.758721 130.025359 403.727229 146.340064 
" style="fill: none; stroke-dasharray: 3.7,1.6; stroke-dashoffset: 0; stroke: #5a84b5; stroke-linecap: round"/>
    <path d="M 400.138054 143.672139 
L 403.727229 146.340064 
L 399.439384 147.610649 
" style="fill: none; stroke-dasharray: 3.7,1.6; stroke-dashoffset: 0; stroke: #5a84b5; stroke-linecap: round"/>
   </g>
   <g id="text_3">
    <!-- Defensive Gravity: Creating Space for Teammates -->
    <g style="fill: #ebebeb" transform="translate(154.726875 19.49625) scale(0.12 -0.12)">
     <defs>
      <path id="ArialMT-44" d="M 494 0 
L 494 4581 
L 2072 4581 
Q 2606 4581 2888 4516 
Q 3281 4425 3559 4188 
Q 3922 3881 4101 3404 
Q 4281 2928 4281 2316 
Q 4281 1794 4159 1391 
Q 4038 988 3847 723 
Q 3656 459 3429 307 
Q 3203 156 2883 78 
Q 2563 0 2147 0 
L 494 0 
z
M 1100 541 
L 2078 541 
Q 2531 541 2789 625 
Q 3047 709 3200 863 
Q 3416 1078 3536 1442 
Q 3656 1806 3656 2325 
Q 3656 3044 3420 3430 
Q 3184 3816 2847 3947 
Q 2603 4041 2063 4041 
L 1100 4041 
L 1100 541 
z
" transform="scale(0.015625)"/>
      <path id="ArialMT-66" d="M 556 0 
L 556 2881 
L 59 2881 
L 59 3319 
L 556 3319 
L 556 3672 
Q 556 4006 616 4169 
Q 697 4388 901 4523 
Q 1106 4659 1475 4659 
Q 1713 4659 2000 4603 
L 1916 4113 
Q 1741 4144 1584 4144 
Q 1328 4144 1222 4034 
Q 1116 3925 1116 3625 
L 1116 3319 
L 1763 3319 
L 1763 2881 
L 1116 2881 
L 1116 0 
L 556 0 
z
" transform="scale(0.015625)"/>
      <path id="ArialMT-6e" d="M 422 0 
L 422 3319 
L 928 3319 
L 928 2847 
Q 1294 3394 1984 3394 
Q 2284 3394 2536 3286 
Q 2788 3178 2913 3003 
Q 3038 2828 3088 2588 
Q 3119 2431 3119 2041 
L 3119 0 
L 2556 0 
L 2556 2019 
Q 2556 2363 2490 2533 
Q 2425 2703 2258 2804 
Q 2091 2906 1866 2906 
Q 1506 2906 1245 2678 
Q 984 2450 984 1813 
L 984 0 
L 422 0 
z
" transform="scale(0.015625)"/>
      <path id="ArialMT-20" transform="scale(0.015625)"/>
      <path id="ArialMT-47" d="M 2638 1797 
L 2638 2334 
L 4578 2338 
L 4578 638 
Q 4131 281 3656 101 
Q 3181 -78 2681 -78 
Q 2006 -78 1454 211 
Q 903 500 622 1047 
Q 341 1594 341 2269 
Q 341 2938 620 3517 
Q 900 4097 1425 4378 
Q 1950 4659 2634 4659 
Q 3131 4659 3532 4498 
Q 3934 4338 4162 4050 
Q 4391 3763 4509 3300 
L 3963 3150 
Q 3859 3500 3706 3700 
Q 3553 3900 3268 4020 
Q 2984 4141 2638 4141 
Q 2222 4141 1919 4014 
Q 1616 3888 1430 3681 
Q 1244 3475 1141 3228 
Q 966 2803 966 2306 
Q 966 1694 1177 1281 
Q 1388 869 1791 669 
Q 2194 469 2647 469 
Q 3041 469 3416 620 
Q 3791 772 3984 944 
L 3984 1797 
L 2638 1797 
z
" transform="scale(0.015625)"/>
      <path id="ArialMT-74" d="M 1650 503 
L 1731 6 
Q 1494 -44 1306 -44 
Q 1000 -44 831 53 
Q 663 150 594 308 
Q 525 466 525 972 
L 525 2881 
L 113 2881 
L 113 3319 
L 525 3319 
L 525 4141 
L 1084 4478 
L 1084 3319 
L 1650 3319 
L 1650 2881 
L 1084 2881 
L 1084 941 
Q 1084 700 1114 631 
Q 1144 563 1211 522 
Q 1278 481 1403 481 
Q 1497 481 1650 503 
z
" transform="scale(0.015625)"/>
      <path id="ArialMT-79" d="M 397 -1278 
L 334 -750 
Q 519 -800 656 -800 
Q 844 -800 956 -737 
Q 1069 -675 1141 -563 
Q 1194 -478 1313 -144 
Q 1328 -97 1363 -6 
L 103 3319 
L 709 3319 
L 1400 1397 
Q 1534 1031 1641 628 
Q 1738 1016 1872 1384 
L 2581 3319 
L 3144 3319 
L 1881 -56 
Q 1678 -603 1566 -809 
Q 1416 -1088 1222 -1217 
Q 1028 -1347 759 -1347 
Q 597 -1347 397 -1278 
z
" transform="scale(0.015625)"/>
      <path id="ArialMT-3a" d="M 578 2678 
L 578 3319 
L 1219 3319 
L 1219 2678 
L 578 2678 
z
M 578 0 
L 578 641 
L 1219 641 
L 1219 0 
L 578 0 
z
" transform="scale(0.015625)"/>
      <path id="ArialMT-43" d="M 3763 1606 
L 4369 1453 
Q 4178 706 3683 314 
Q 3188 -78 2472 -78 
Q 1731 -78 1267 223 
Q 803 525 561 1097 
Q 319 1669 319 2325 
Q 319 3041 592 3573 
Q 866 4106 1370 4382 
Q 1875 4659 2481 4659 
Q 3169 4659 3637 4309 
Q 4106 3959 4291 3325 
L 3694 3184 
Q 3534 3684 3231 3912 
Q 2928 4141 2469 4141 
Q 1941 4141 1586 3887 
Q 1231 3634 1087 3207 
Q 944 2781 944 2328 
Q 944 1744 1114 1308 
Q 1284 872 1643 656 
Q 2003 441 2422 441 
Q 2931 441 3284 734 
Q 3638 1028 3763 1606 
z
" transform="scale(0.015625)"/>
      <path id="ArialMT-67" d="M 319 -275 
L 866 -356 
Q 900 -609 1056 -725 
Q 1266 -881 1628 -881 
Q 2019 -881 2231 -725 
Q 2444 -569 2519 -288 
Q 2563 -116 2559 434 
Q 2191 0 1641 0 
Q 956 0 581 494 
Q 206 988 206 1678 
Q 206 2153 378 2554 
Q 550 2956 876 3175 
Q 1203 3394 1644 3394 
Q 2231 3394 2613 2919 
L 2613 3319 
L 3131 3319 
L 3131 450 
Q 3131 -325 2973 -648 
Q 2816 -972 2473 -1159 
Q 2131 -1347 1631 -1347 
Q 1038 -1347 672 -1080 
Q 306 -813 319 -275 
z
M 784 1719 
Q 784 1066 1043 766 
Q 1303 466 1694 466 
Q 2081 466 2343 764 
Q 2606 1063 2606 1700 
Q 2606 2309 2336 2618 
Q 2066 2928 1684 2928 
Q 1309 2928 1046 2623 
Q 784 2319 784 1719 
z
" transform="scale(0.015625)"/>
      <path id="ArialMT-53" d="M 288 1472 
L 859 1522 
Q 900 1178 1048 958 
Q 1197 738 1509 602 
Q 1822 466 2213 466 
Q 2559 466 2825 569 
Q 3091 672 3220 851 
Q 3350 1031 3350 1244 
Q 3350 1459 3225 1620 
Q 3100 1781 2813 1891 
Q 2628 1963 1997 2114 
Q 1366 2266 1113 2400 
Q 784 2572 623 2826 
Q 463 3081 463 3397 
Q 463 3744 659 4045 
Q 856 4347 1234 4503 
Q 1613 4659 2075 4659 
Q 2584 4659 2973 4495 
Q 3363 4331 3572 4012 
Q 3781 3694 3797 3291 
L 3216 3247 
Q 3169 3681 2898 3903 
Q 2628 4125 2100 4125 
Q 1550 4125 1298 3923 
Q 1047 3722 1047 3438 
Q 1047 3191 1225 3031 
Q 1400 2872 2139 2705 
Q 2878 2538 3153 2413 
Q 3553 2228 3743 1945 
Q 3934 1663 3934 1294 
Q 3934 928 3725 604 
Q 3516 281 3123 101 
Q 2731 -78 2241 -78 
Q 1619 -78 1198 103 
Q 778 284 539 648 
Q 300 1013 288 1472 
z
" transform="scale(0.015625)"/>
      <path id="ArialMT-70" d="M 422 -1272 
L 422 3319 
L 934 3319 
L 934 2888 
Q 1116 3141 1344 3267 
Q 1572 3394 1897 3394 
Q 2322 3394 2647 3175 
Q 2972 2956 3137 2557 
Q 3303 2159 3303 1684 
Q 3303 1175 3120 767 
Q 2938 359 2589 142 
Q 2241 -75 1856 -75 
Q 1575 -75 1351 44 
Q 1128 163 984 344 
L 984 -1272 
L 422 -1272 
z
M 931 1641 
Q 931 1000 1190 694 
Q 1450 388 1819 388 
Q 2194 388 2461 705 
Q 2728 1022 2728 1688 
Q 2728 2322 2467 2637 
Q 2206 2953 1844 2953 
Q 1484 2953 1207 2617 
Q 931 2281 931 1641 
z
" transform="scale(0.015625)"/>
      <path id="ArialMT-63" d="M 2588 1216 
L 3141 1144 
Q 3050 572 2676 248 
Q 2303 -75 1759 -75 
Q 1078 -75 664 370 
Q 250 816 250 1647 
Q 250 2184 428 2587 
Q 606 2991 970 3192 
Q 1334 3394 1763 3394 
Q 2303 3394 2647 3120 
Q 2991 2847 3088 2344 
L 2541 2259 
Q 2463 2594 2264 2762 
Q 2066 2931 1784 2931 
Q 1359 2931 1093 2626 
Q 828 2322 828 1663 
Q 828 994 1084 691 
Q 1341 388 1753 388 
Q 2084 388 2306 591 
Q 2528 794 2588 1216 
z
" transform="scale(0.015625)"/>
      <path id="ArialMT-6f" d="M 213 1659 
Q 213 2581 725 3025 
Q 1153 3394 1769 3394 
Q 2453 3394 2887 2945 
Q 3322 2497 3322 1706 
Q 3322 1066 3130 698 
Q 2938 331 2570 128 
Q 2203 -75 1769 -75 
Q 1072 -75 642 372 
Q 213 819 213 1659 
z
M 791 1659 
Q 791 1022 1069 705 
Q 1347 388 1769 388 
Q 2188 388 2466 706 
Q 2744 1025 2744 1678 
Q 2744 2294 2464 2611 
Q 2184 2928 1769 2928 
Q 1347 2928 1069 2612 
Q 791 2297 791 1659 
z
" transform="scale(0.015625)"/>
      <path id="ArialMT-54" d="M 1659 0 
L 1659 4041 
L 150 4041 
L 150 4581 
L 3781 4581 
L 3781 4041 
L 2266 4041 
L 2266 0 
L 1659 0 
z
" transform="scale(0.015625)"/>
      <path id="ArialMT-6d" d="M 422 0 
L 422 3319 
L 925 3319 
L 925 2853 
Q 1081 3097 1340 3245 
Q 1600 3394 1931 3394 
Q 2300 3394 2536 3241 
Q 2772 3088 2869 2813 
Q 3263 3394 3894 3394 
Q 4388 3394 4653 3120 
Q 4919 2847 4919 2278 
L 4919 0 
L 4359 0 
L 4359 2091 
Q 4359 2428 4304 2576 
Q 4250 2725 4106 2815 
Q 3963 2906 3769 2906 
Q 3419 2906 3187 2673 
Q 2956 2441 2956 1928 
L 2956 0 
L 2394 0 
L 2394 2156 
Q 2394 2531 2256 2718 
Q 2119 2906 1806 2906 
Q 1569 2906 1367 2781 
Q 1166 2656 1075 2415 
Q 984 2175 984 1722 
L 984 0 
L 422 0 
z
" transform="scale(0.015625)"/>
     </defs>
     <use xlink:href="#ArialMT-44"/>
     <use xlink:href="#ArialMT-65" transform="translate(72.216797 0)"/>
     <use xlink:href="#ArialMT-66" transform="translate(127.832031 0)"/>
     <use xlink:href="#ArialMT-65" transform="translate(155.615234 0)"/>
     <use xlink:href="#ArialMT-6e" transform="translate(211.230469 0)"/>
     <use xlink:href="#ArialMT-73" transform="translate(266.845703 0)"/>
     <use xlink:href="#ArialMT-69" transform="translate(316.845703 0)"/>
     <use xlink:href="#ArialMT-76" transform="translate(339.0625 0)"/>
     <use xlink:href="#ArialMT-65" transform="translate(389.0625 0)"/>
     <use xlink:href="#ArialMT-20" transform="translate(444.677734 0)"/>
     <use xlink:href="#ArialMT-47" transform="translate(472.460938 0)"/>
     <use xlink:href="#ArialMT-72" transform="translate(550.244141 0)"/>
     <use xlink:href="#ArialMT-61" transform="translate(583.544922 0)"/>
     <use xlink:href="#ArialMT-76" transform="translate(639.160156 0)"/>
     <use xlink:href="#ArialMT-69" transform="translate(689.160156 0)"/>
     <use xlink:href="#ArialMT-74" transform="translate(711.376953 0)"/>
     <use xlink:href="#ArialMT-79" transform="translate(739.160156 0)"/>
     <use xlink:href="#ArialMT-3a" transform="translate(789.160156 0)"/>
     <use xlink:href="#ArialMT-20" transform="translate(816.943359 0)"/>
     <use xlink:href="#ArialMT-43" transform="translate(844.726562 0)"/>
     <use xlink:href="#ArialMT-72" transform="translate(916.943359 0)"/>
     <use xlink:href="#ArialMT-65" transform="translate(950.244141 0)"/>
     <use xlink:href="#ArialMT-61" transform="translate(1005.859375 0)"/>
     <use xlink:href="#ArialMT-74" transform="translate(1061.474609 0)"/>
     <use xlink:href="#ArialMT-69" transform="translate(1089.257812 0)"/>
     <use xlink:href="#ArialMT-6e" transform="translate(1111.474609 0)"/>
     <use xlink:href="#ArialMT-67" transform="translate(1167.089844 0)"/>
     <use xlink:href="#ArialMT-20" transform="translate(1222.705078 0)"/>
     <use xlink:href="#ArialMT-53" transform="translate(1250.488281 0)"/>
     <use xlink:href="#ArialMT-70" transform="translate(1317.1875 0)"/>
     <use xlink:href="#ArialMT-61" transform="translate(1372.802734 0)"/>
     <use xlink:href="#ArialMT-63" transform="translate(1428.417969 0)"/>
     <use xlink:href="#ArialMT-65" transform="translate(1478.417969 0)"/>
     <use xlink:href="#ArialMT-20" transform="translate(1534.033203 0)"/>
     <use xlink:href="#ArialMT-66" transform="translate(1561.816406 0)"/>
     <use xlink:href="#ArialMT-6f" transform="translate(1589.599609 0)"/>
     <use xlink:href="#ArialMT-72" transform="translate(1645.214844 0)"/>
     <use xlink:href="#ArialMT-20" transform="translate(1678.515625 0)"/>
     <use xlink:href="#ArialMT-54" transform="translate(1704.548828 0)"/>
     <use xlink:href="#ArialMT-65" transform="translate(1754.507812 0)"/>
     <use xlink:href="#ArialMT-61" transform="translate(1810.123047 0)"/>
     <use xlink:href="#ArialMT-6d" transform="translate(1865.738281 0)"/>
     <use xlink:href="#ArialMT-6d" transform="translate(1949.039062 0)"/>
     <use xlink:href="#ArialMT-61" transform="translate(2032.339844 0)"/>
     <use xlink:href="#ArialMT-74" transform="translate(2087.955078 0)"/>
     <use xlink:href="#ArialMT-65" transform="translate(2115.738281 0)"/>
     <use xlink:href="#ArialMT-73" transform="translate(2171.353516 0)"/>
    </g>
   </g>
   <g id="PathCollection_1">
    <defs>
     <path id="m626564e025" d="M -6.123724 6.123724 
L 6.123724 6.123724 
L 6.123724 -6.123724 
L -6.123724 -6.123724 
z
" style="stroke: #ff5555"/>
    </defs>
    <g clip-path="url(#p6e1f483439)">
     <use xlink:href="#m626564e025" x="248.4" y="281.761719" style="fill: #ff5555; stroke: #ff5555"/>
    </g>
   </g>
   <g id="PathCollection_2">
    <g clip-path="url(#p6e1f483439)">
     <use xlink:href="#m626564e025" x="195.6" y="214.323437" style="fill: #ff5555; stroke: #ff5555"/>
    </g>
   </g>
   <g id="PathCollection_3">
    <g clip-path="url(#p6e1f483439)">
     <use xlink:href="#m626564e025" x="322.32" y="248.042578" style="fill: #ff5555; stroke: #ff5555"/>
    </g>
   </g>
   <g id="PathCollection_4">
    <defs>
     <path id="mba24913be5" d="M 0 6.123724 
C 1.624031 6.123724 3.181764 5.47849 4.330127 4.330127 
C 5.47849 3.181764 6.123724 1.624031 6.123724 0 
C 6.123724 -1.624031 5.47849 -3.181764 4.330127 -4.330127 
C 3.181764 -5.47849 1.624031 -6.123724 0 -6.123724 
C -1.624031 -6.123724 -3.181764 -5.47849 -4.330127 -4.330127 
C -5.47849 -3.181764 -6.123724 -1.624031 -6.123724 0 
C -6.123724 1.624031 -5.47849 3.181764 -4.330127 4.330127 
C -3.181764 5.47849 -1.624031 6.123724 0 6.123724 
z
" style="stroke: #5a84b5"/>
    </defs>
    <g clip-path="url(#p6e1f483439)">
     <use xlink:href="#mba24913be5" x="216.72" y="113.166016" style="fill: #5a84b5; stroke: #5a84b5"/>
    </g>
   </g>
   <g id="PathCollection_5">
    <defs>
     <path id="m0a45d959c3" d="M 0 7.071068 
C 1.875269 7.071068 3.673985 6.326016 5 5 
C 6.326016 3.673985 7.071068 1.875269 7.071068 0 
C 7.071068 -1.875269 6.326016 -3.673985 5 -5 
C 3.673985 -6.326016 1.875269 -7.071068 0 -7.071068 
C -1.875269 -7.071068 -3.673985 -6.326016 -5 -5 
C -6.326016 -3.673985 -7.071068 -1.875269 -7.071068 0 
C -7.071068 1.875269 -6.326016 3.673985 -5 5 
C -3.673985 6.326016 -1.875269 7.071068 0 7.071068 
z
" style="stroke: #b5a58d"/>
    </defs>
    <g clip-path="url(#p6e1f483439)">
     <use xlink:href="#m0a45d959c3" x="142.8" y="315.480859" style="fill: #b5a58d; stroke: #b5a58d"/>
    </g>
   </g>
  </g>
 </g>
 <defs>
  <clipPath id="p6e1f483439">
   <rect x="10.8" y="25.49625" width="554.4" height="323.70375"/>
  </clipPath>
 </defs>
</svg>
