<?xml version="1.0" encoding="utf-8" standalone="no"?>
<!DOCTYPE svg PUBLIC "-//W3C//DTD SVG 1.1//EN"
  "http://www.w3.org/Graphics/SVG/1.1/DTD/svg11.dtd">
<svg xmlns:xlink="http://www.w3.org/1999/xlink" width="576pt" height="360pt" viewBox="0 0 576 360" xmlns="http://www.w3.org/2000/svg" version="1.1">
 <metadata>
  <rdf:RDF xmlns:dc="http://purl.org/dc/elements/1.1/" xmlns:cc="http://creativecommons.org/ns#" xmlns:rdf="http://www.w3.org/1999/02/22-rdf-syntax-ns#">
   <cc:Work>
    <dc:type rdf:resource="http://purl.org/dc/dcmitype/StillImage"/>
    <dc:date>2026-06-23T23:09:28.991657</dc:date>
    <dc:format>image/svg+xml</dc:format>
    <dc:creator>
     <cc:Agent>
      <dc:title>Matplotlib v3.10.8, https://matplotlib.org/</dc:title>
     </cc:Agent>
    </dc:creator>
   </cc:Work>
  </rdf:RDF>
 </metadata>
 <defs>
  <style type="text/css">*{stroke-linejoin: round; stroke-linecap: butt}</style>
 </defs>
 <g id="figure_1">
  <g id="patch_1">
   <path d="M 0 360 
L 576 360 
L 576 0 
L 0 0 
z
" style="fill: #111111"/>
  </g>
  <g id="axes_1">
   <g id="QuadContourSet_1">
    <path d="M 40.017391 328.44976 
L 45.130435 328.44976 
L 50.243478 328.44976 
L 55.356522 328.44976 
L 60.469565 328.44976 
L 65.582609 328.44976 
L 70.695652 328.44976 
L 75.808696 328.44976 
L 80.921739 328.44976 
L 86.034783 328.44976 
L 91.147826 328.44976 
L 96.26087 328.44976 
L 101.373913 328.44976 
L 106.486957 328.44976 
L 111.6 328.44976 
L 116.713043 328.44976 
L 121.826087 328.44976 
L 126.93913 328.44976 
L 132.052174 328.44976 
L 137.165217 328.44976 
L 142.278261 328.44976 
L 147.391304 328.44976 
L 152.504348 328.44976 
L 157.617391 328.44976 
L 162.730435 328.44976 
L 167.843478 328.44976 
L 172.956522 328.44976 
L 178.069565 328.44976 
L 183.182609 328.44976 
L 188.295652 328.44976 
L 193.408696 328.44976 
L 198.521739 328.44976 
L 203.634783 328.44976 
L 208.747826 328.44976 
L 213.86087 328.44976 
L 218.973913 328.44976 
L 224.086957 328.44976 
L 229.2 328.44976 
L 234.313043 328.44976 
L 239.426087 328.44976 
L 244.53913 328.44976 
L 249.652174 328.44976 
L 254.765217 328.44976 
L 259.878261 328.44976 
L 264.991304 328.44976 
L 270.104348 328.44976 
L 275.217391 328.44976 
L 280.330435 328.44976 
L 285.443478 328.44976 
L 290.556522 328.44976 
L 295.669565 328.44976 
L 300.782609 328.44976 
L 305.895652 328.44976 
L 311.008696 328.44976 
L 316.121739 328.44976 
L 321.234783 328.44976 
L 326.347826 328.44976 
L 331.46087 328.44976 
L 336.573913 328.44976 
L 341.686957 328.44976 
L 346.8 328.44976 
L 351.913043 328.44976 
L 357.026087 328.44976 
L 362.13913 328.44976 
L 367.252174 328.44976 
L 372.365217 328.44976 
L 377.478261 328.44976 
L 382.591304 328.44976 
L 387.704348 328.44976 
L 392.817391 328.44976 
L 397.930435 328.44976 
L 403.043478 328.44976 
L 408.156522 328.44976 
L 413.269565 328.44976 
L 418.382609 328.44976 
L 423.495652 328.44976 
L 428.608696 328.44976 
L 433.721739 328.44976 
L 438.834783 328.44976 
L 443.947826 328.44976 
L 449.06087 328.44976 
L 454.173913 328.44976 
L 459.286957 328.44976 
L 464.4 328.44976 
L 469.513043 328.44976 
L 474.626087 328.44976 
L 479.73913 328.44976 
L 484.852174 328.44976 
L 489.965217 328.44976 
L 495.078261 328.44976 
L 500.191304 328.44976 
L 505.304348 328.44976 
L 510.417391 328.44976 
L 515.530435 328.44976 
L 520.643478 328.44976 
L 525.756522 328.44976 
L 530.869565 328.44976 
L 535.982609 328.44976 
L 541.095652 328.44976 
L 541.095652 325.599222 
L 541.095652 322.748683 
L 541.095652 319.898145 
L 541.095652 317.047607 
L 541.095652 314.197069 
L 541.095652 311.346531 
L 541.095652 308.495993 
L 541.095652 305.645455 
L 541.095652 302.794917 
L 541.095652 299.944379 
L 541.095652 297.093841 
L 541.095652 294.243303 
L 541.095652 291.392765 
L 541.095652 288.542227 
L 541.095652 285.691689 
L 541.095652 282.84115 
L 541.095652 279.990612 
L 541.095652 277.140074 
L 541.095652 274.289536 
L 541.095652 271.438998 
L 541.095652 268.58846 
L 541.095652 265.737922 
L 541.095652 262.887384 
L 541.095652 260.036846 
L 541.095652 257.186308 
L 541.095652 254.33577 
L 541.095652 251.485232 
L 541.095652 248.634694 
L 541.095652 245.784155 
L 541.095652 242.933617 
L 541.095652 240.083079 
L 541.095652 237.232541 
L 541.095652 234.382003 
L 541.095652 231.531465 
L 541.095652 228.680927 
L 541.095652 225.830389 
L 541.095652 222.979851 
L 541.095652 220.129313 
L 541.095652 217.278775 
L 541.095652 214.428237 
L 541.095652 211.577699 
L 541.095652 208.727161 
L 541.095652 205.876622 
L 541.095652 203.026084 
L 541.095652 200.175546 
L 541.095652 197.325008 
L 541.095652 194.47447 
L 541.095652 191.623932 
L 541.095652 188.773394 
L 541.095652 185.922856 
L 541.095652 183.072318 
L 541.095652 180.22178 
L 541.095652 177.371242 
L 541.095652 174.520704 
L 541.095652 171.670166 
L 541.095652 168.819628 
L 541.095652 165.969089 
L 541.095652 163.118551 
L 541.095652 160.268013 
L 541.095652 157.417475 
L 541.095652 154.566937 
L 541.095652 151.716399 
L 541.095652 148.865861 
L 541.095652 146.015323 
L 541.095652 143.164785 
L 541.095652 140.314247 
L 541.095652 137.463709 
L 541.095652 134.613171 
L 541.095652 131.762633 
L 541.095652 128.912095 
L 541.095652 126.061556 
L 541.095652 123.211018 
L 541.095652 120.36048 
L 541.095652 117.509942 
L 541.095652 114.659404 
L 541.095652 111.808866 
L 541.095652 108.958328 
L 541.095652 106.10779 
L 541.095652 103.257252 
L 541.095652 100.406714 
L 541.095652 97.556176 
L 541.095652 94.705638 
L 541.095652 91.8551 
L 541.095652 89.004561 
L 541.095652 86.154023 
L 541.095652 83.303485 
L 541.095652 80.452947 
L 541.095652 77.602409 
L 541.095652 74.751871 
L 541.095652 71.901333 
L 541.095652 69.050795 
L 541.095652 66.200257 
L 541.095652 63.349719 
L 541.095652 60.499181 
L 541.095652 57.648643 
L 541.095652 54.798105 
L 541.095652 51.947567 
L 541.095652 49.097028 
L 541.095652 46.24649 
L 535.982609 46.24649 
L 530.869565 46.24649 
L 525.756522 46.24649 
L 520.643478 46.24649 
L 515.530435 46.24649 
L 510.417391 46.24649 
L 505.304348 46.24649 
L 500.191304 46.24649 
L 495.078261 46.24649 
L 489.965217 46.24649 
L 484.852174 46.24649 
L 479.73913 46.24649 
L 474.626087 46.24649 
L 469.513043 46.24649 
L 464.4 46.24649 
L 459.286957 46.24649 
L 454.173913 46.24649 
L 449.06087 46.24649 
L 443.947826 46.24649 
L 438.834783 46.24649 
L 433.721739 46.24649 
L 428.608696 46.24649 
L 423.495652 46.24649 
L 418.382609 46.24649 
L 413.269565 46.24649 
L 408.156522 46.24649 
L 403.043478 46.24649 
L 397.930435 46.24649 
L 392.817391 46.24649 
L 387.704348 46.24649 
L 382.591304 46.24649 
L 377.478261 46.24649 
L 372.365217 46.24649 
L 367.252174 46.24649 
L 362.13913 46.24649 
L 357.026087 46.24649 
L 351.913043 46.24649 
L 346.8 46.24649 
L 341.686957 46.24649 
L 336.573913 46.24649 
L 331.46087 46.24649 
L 326.347826 46.24649 
L 321.234783 46.24649 
L 316.121739 46.24649 
L 311.008696 46.24649 
L 305.895652 46.24649 
L 300.782609 46.24649 
L 295.669565 46.24649 
L 290.556522 46.24649 
L 285.443478 46.24649 
L 280.330435 46.24649 
L 275.217391 46.24649 
L 270.104348 46.24649 
L 264.991304 46.24649 
L 259.878261 46.24649 
L 254.765217 46.24649 
L 249.652174 46.24649 
L 244.53913 46.24649 
L 239.426087 46.24649 
L 234.313043 46.24649 
L 229.2 46.24649 
L 224.086957 46.24649 
L 218.973913 46.24649 
L 213.86087 46.24649 
L 208.747826 46.24649 
L 203.634783 46.24649 
L 198.521739 46.24649 
L 193.408696 46.24649 
L 188.295652 46.24649 
L 183.182609 46.24649 
L 178.069565 46.24649 
L 172.956522 46.24649 
L 167.843478 46.24649 
L 162.730435 46.24649 
L 157.617391 46.24649 
L 152.504348 46.24649 
L 147.391304 46.24649 
L 142.278261 46.24649 
L 137.165217 46.24649 
L 132.052174 46.24649 
L 126.93913 46.24649 
L 121.826087 46.24649 
L 116.713043 46.24649 
L 111.6 46.24649 
L 106.486957 46.24649 
L 101.373913 46.24649 
L 96.26087 46.24649 
L 91.147826 46.24649 
L 86.034783 46.24649 
L 80.921739 46.24649 
L 75.808696 46.24649 
L 70.695652 46.24649 
L 65.582609 46.24649 
L 60.469565 46.24649 
L 55.356522 46.24649 
L 50.243478 46.24649 
L 45.130435 46.24649 
L 40.017391 46.24649 
L 34.904348 46.24649 
L 34.904348 49.097028 
L 34.904348 51.947567 
L 34.904348 54.798105 
L 34.904348 57.648643 
L 34.904348 60.499181 
L 34.904348 63.349719 
L 34.904348 66.200257 
L 34.904348 69.050795 
L 34.904348 71.901333 
L 34.904348 74.751871 
L 34.904348 77.602409 
L 34.904348 80.452947 
L 34.904348 83.303485 
L 34.904348 86.154023 
L 34.904348 89.004561 
L 34.904348 91.8551 
L 34.904348 94.705638 
L 34.904348 97.556176 
L 34.904348 100.406714 
L 34.904348 103.257252 
L 34.904348 106.10779 
L 34.904348 108.958328 
L 34.904348 111.808866 
L 34.904348 114.659404 
L 34.904348 117.509942 
L 34.904348 120.36048 
L 34.904348 123.211018 
L 34.904348 126.061556 
L 34.904348 128.912095 
L 34.904348 131.762633 
L 34.904348 134.613171 
L 34.904348 137.463709 
L 34.904348 140.314247 
L 34.904348 143.164785 
L 34.904348 146.015323 
L 34.904348 148.865861 
L 34.904348 151.716399 
L 34.904348 154.566937 
L 34.904348 157.417475 
L 34.904348 160.268013 
L 34.904348 163.118551 
L 34.904348 165.969089 
L 34.904348 168.819628 
L 34.904348 171.670166 
L 34.904348 174.520704 
L 34.904348 177.371242 
L 34.904348 180.22178 
L 34.904348 183.072318 
L 34.904348 185.922856 
L 34.904348 188.773394 
L 34.904348 191.623932 
L 34.904348 194.47447 
L 34.904348 197.325008 
L 34.904348 200.175546 
L 34.904348 203.026084 
L 34.904348 205.876622 
L 34.904348 208.727161 
L 34.904348 211.577699 
L 34.904348 214.428237 
L 34.904348 217.278775 
L 34.904348 220.129313 
L 34.904348 222.979851 
L 34.904348 225.830389 
L 34.904348 228.680927 
L 34.904348 231.531465 
L 34.904348 234.382003 
L 34.904348 237.232541 
L 34.904348 240.083079 
L 34.904348 242.933617 
L 34.904348 245.784155 
L 34.904348 248.634694 
L 34.904348 251.485232 
L 34.904348 254.33577 
L 34.904348 257.186308 
L 34.904348 260.036846 
L 34.904348 262.887384 
L 34.904348 265.737922 
L 34.904348 268.58846 
L 34.904348 271.438998 
L 34.904348 274.289536 
L 34.904348 277.140074 
L 34.904348 279.990612 
L 34.904348 282.84115 
L 34.904348 285.691689 
L 34.904348 288.542227 
L 34.904348 291.392765 
L 34.904348 294.243303 
L 34.904348 297.093841 
L 34.904348 299.944379 
L 34.904348 302.794917 
L 34.904348 305.645455 
L 34.904348 308.495993 
L 34.904348 311.346531 
L 34.904348 314.197069 
L 34.904348 317.047607 
L 34.904348 319.898145 
L 34.904348 322.748683 
L 34.904348 325.599222 
L 34.904348 328.44976 
z
M 335.963772 308.495993 
L 331.46087 307.637581 
L 326.347826 306.25315 
L 324.601177 305.645455 
L 321.234783 304.459834 
L 317.448154 302.794917 
L 316.121739 302.189922 
L 311.969422 299.944379 
L 311.008696 299.391835 
L 307.489916 297.093841 
L 305.895652 295.958149 
L 303.693773 294.243303 
L 300.782609 291.70527 
L 300.4433 291.392765 
L 297.590841 288.542227 
L 295.669565 286.327547 
L 295.127141 285.691689 
L 292.931037 282.84115 
L 291.063642 279.990612 
L 290.556522 279.1102 
L 289.392179 277.140074 
L 287.950509 274.289536 
L 286.750484 271.438998 
L 285.767098 268.58846 
L 285.443478 267.436938 
L 284.929768 265.737922 
L 284.257231 262.887384 
L 283.771104 260.036846 
L 283.46136 257.186308 
L 283.321135 254.33577 
L 283.34642 251.485232 
L 283.535804 248.634694 
L 283.890246 245.784155 
L 284.412854 242.933617 
L 285.108642 240.083079 
L 285.443478 238.97389 
L 285.928016 237.232541 
L 286.878461 234.382003 
L 288.00028 231.531465 
L 289.298581 228.680927 
L 290.556522 226.239038 
L 290.755391 225.830389 
L 292.247159 222.979851 
L 293.881625 220.129313 
L 295.642082 217.278775 
L 295.669565 217.234695 
L 297.315103 214.428237 
L 299.017902 211.577699 
L 300.706662 208.727161 
L 300.782609 208.589202 
L 302.146268 205.876622 
L 303.440588 203.026084 
L 304.548031 200.175546 
L 305.42255 197.325008 
L 305.895652 195.083954 
L 306.007345 194.47447 
L 306.266775 191.623932 
L 306.254507 188.773394 
L 305.969397 185.922856 
L 305.895652 185.54422 
L 305.34253 183.072318 
L 304.42176 180.22178 
L 303.254885 177.371242 
L 301.88566 174.520704 
L 300.782609 172.47375 
L 300.307421 171.670166 
L 298.486013 168.819628 
L 296.63444 165.969089 
L 295.669565 164.500814 
L 294.704146 163.118551 
L 292.750344 160.268013 
L 290.920037 157.417475 
L 290.556522 156.828232 
L 289.086359 154.566937 
L 287.394688 151.716399 
L 285.887124 148.865861 
L 285.443478 147.942928 
L 284.453491 146.015323 
L 283.164431 143.164785 
L 282.062833 140.314247 
L 281.13755 137.463709 
L 280.3783 134.613171 
L 280.330435 134.391506 
L 279.70131 131.762633 
L 279.18841 128.912095 
L 278.839391 126.061556 
L 278.649879 123.211018 
L 278.617922 120.36048 
L 278.744091 117.509942 
L 279.031615 114.659404 
L 279.486569 111.808866 
L 280.118122 108.958328 
L 280.330435 108.204474 
L 280.867861 106.10779 
L 281.774609 103.257252 
L 282.881637 100.406714 
L 284.211974 97.556176 
L 285.443478 95.310632 
L 285.75976 94.705638 
L 287.445795 91.8551 
L 289.428707 89.004561 
L 290.556522 87.570099 
L 291.662353 86.154023 
L 294.178088 83.303485 
L 295.669565 81.800331 
L 297.046393 80.452947 
L 300.315117 77.602409 
L 300.782609 77.224262 
L 304.052517 74.751871 
L 305.895652 73.480234 
L 308.429348 71.901333 
L 311.008696 70.397715 
L 313.665628 69.050795 
L 316.121739 67.857168 
L 320.215436 66.200257 
L 321.234783 65.795073 
L 326.347826 64.129414 
L 329.506268 63.349719 
L 331.46087 62.857069 
L 336.573913 61.92162 
L 341.686957 61.341913 
L 346.8 61.09117 
L 351.913043 61.157885 
L 357.026087 61.544927 
L 362.13913 62.269757 
L 367.180862 63.349719 
L 367.252174 63.364539 
L 372.365217 64.769167 
L 376.35972 66.200257 
L 377.478261 66.604134 
L 382.591304 68.859186 
L 382.965652 69.050795 
L 387.704348 71.589294 
L 388.217949 71.901333 
L 392.621745 74.751871 
L 392.817391 74.887002 
L 396.432775 77.602409 
L 397.930435 78.843386 
L 399.77584 80.452947 
L 402.708001 83.303485 
L 403.043478 83.654777 
L 405.393274 86.154023 
L 407.749527 89.004561 
L 408.156522 89.535688 
L 409.964247 91.8551 
L 411.952903 94.705638 
L 413.269565 96.785913 
L 413.779872 97.556176 
L 415.562207 100.406714 
L 417.197826 103.257252 
L 418.382609 105.44001 
L 418.771454 106.10779 
L 420.410552 108.958328 
L 422.002694 111.808866 
L 423.495652 114.495107 
L 423.594552 114.659404 
L 425.390551 117.509942 
L 427.211326 120.36048 
L 428.608696 122.47357 
L 429.132061 123.211018 
L 431.262201 126.061556 
L 433.403509 128.912095 
L 433.721739 129.313498 
L 435.762151 131.762633 
L 438.0917 134.613171 
L 438.834783 135.512345 
L 440.519189 137.463709 
L 442.879072 140.314247 
L 443.947826 141.65322 
L 445.213684 143.164785 
L 447.463589 146.015323 
L 449.06087 148.241304 
L 449.538862 148.865861 
L 451.60244 151.716399 
L 453.400754 154.566937 
L 454.173913 155.925143 
L 455.107338 157.417475 
L 456.697341 160.268013 
L 458.048977 163.118551 
L 459.188028 165.969089 
L 459.286957 166.251444 
L 460.324913 168.819628 
L 461.274378 171.670166 
L 462.035021 174.520704 
L 462.623406 177.371242 
L 463.052379 180.22178 
L 463.33128 183.072318 
L 463.46612 185.922856 
L 463.459691 188.773394 
L 463.311614 191.623932 
L 463.0183 194.47447 
L 462.572844 197.325008 
L 461.964835 200.175546 
L 461.18009 203.026084 
L 460.200318 205.876622 
L 459.286957 208.080633 
L 459.054132 208.727161 
L 457.873025 211.577699 
L 456.466181 214.428237 
L 454.803337 217.278775 
L 454.173913 218.252123 
L 453.063585 220.129313 
L 451.155185 222.979851 
L 449.06087 225.695225 
L 448.962383 225.830389 
L 446.787542 228.680927 
L 444.319007 231.531465 
L 443.947826 231.947014 
L 441.849751 234.382003 
L 439.176584 237.232541 
L 438.834783 237.596112 
L 436.562062 240.083079 
L 433.825632 242.933617 
L 433.721739 243.045526 
L 431.261174 245.784155 
L 428.660213 248.634694 
L 428.608696 248.694556 
L 426.311321 251.485232 
L 424.001497 254.33577 
L 423.495652 254.996769 
L 421.909686 257.186308 
L 419.916042 260.036846 
L 418.382609 262.277547 
L 417.988529 262.887384 
L 416.214448 265.737922 
L 414.410255 268.58846 
L 413.269565 270.352689 
L 412.60077 271.438998 
L 410.795084 274.289536 
L 408.843106 277.140074 
L 408.156522 278.08808 
L 406.811411 279.990612 
L 404.607969 282.84115 
L 403.043478 284.680452 
L 402.178365 285.691689 
L 399.522049 288.542227 
L 397.930435 290.087996 
L 396.532191 291.392765 
L 393.153744 294.243303 
L 392.817391 294.509229 
L 389.283436 297.093841 
L 387.704348 298.157051 
L 384.730591 299.944379 
L 382.591304 301.153905 
L 379.205966 302.794917 
L 377.478261 303.600576 
L 372.365217 305.557325 
L 372.077246 305.645455 
L 367.252174 307.120188 
L 362.13913 308.252339 
L 360.512036 308.495993 
L 357.026087 309.037526 
L 351.913043 309.465829 
L 346.8 309.538885 
L 341.686957 309.259732 
L 336.573913 308.615486 
z
" clip-path="url(#pb2d5c1f106)" style="fill: #0a0822; fill-opacity: 0.6"/>
    <path d="M 336.573913 308.615486 
L 341.686957 309.259732 
L 346.8 309.538885 
L 351.913043 309.465829 
L 357.026087 309.037526 
L 360.512036 308.495993 
L 362.13913 308.252339 
L 367.252174 307.120188 
L 372.077246 305.645455 
L 372.365217 305.557325 
L 377.478261 303.600576 
L 379.205966 302.794917 
L 382.591304 301.153905 
L 384.730591 299.944379 
L 387.704348 298.157051 
L 389.283436 297.093841 
L 392.817391 294.509229 
L 393.153744 294.243303 
L 396.532191 291.392765 
L 397.930435 290.087996 
L 399.522049 288.542227 
L 402.178365 285.691689 
L 403.043478 284.680452 
L 404.607969 282.84115 
L 406.811411 279.990612 
L 408.156522 278.08808 
L 408.843106 277.140074 
L 410.795084 274.289536 
L 412.60077 271.438998 
L 413.269565 270.352689 
L 414.410255 268.58846 
L 416.214448 265.737922 
L 417.988529 262.887384 
L 418.382609 262.277547 
L 419.916042 260.036846 
L 421.909686 257.186308 
L 423.495652 254.996769 
L 424.001497 254.33577 
L 426.311321 251.485232 
L 428.608696 248.694556 
L 428.660213 248.634694 
L 431.261174 245.784155 
L 433.721739 243.045526 
L 433.825632 242.933617 
L 436.562062 240.083079 
L 438.834783 237.596112 
L 439.176584 237.232541 
L 441.849751 234.382003 
L 443.947826 231.947014 
L 444.319007 231.531465 
L 446.787542 228.680927 
L 448.962383 225.830389 
L 449.06087 225.695225 
L 451.155185 222.979851 
L 453.063585 220.129313 
L 454.173913 218.252123 
L 454.803337 217.278775 
L 456.466181 214.428237 
L 457.873025 211.577699 
L 459.054132 208.727161 
L 459.286957 208.080633 
L 460.200318 205.876622 
L 461.18009 203.026084 
L 461.964835 200.175546 
L 462.572844 197.325008 
L 463.0183 194.47447 
L 463.311614 191.623932 
L 463.459691 188.773394 
L 463.46612 185.922856 
L 463.33128 183.072318 
L 463.052379 180.22178 
L 462.623406 177.371242 
L 462.035021 174.520704 
L 461.274378 171.670166 
L 460.324913 168.819628 
L 459.286957 166.251444 
L 459.188028 165.969089 
L 458.048977 163.118551 
L 456.697341 160.268013 
L 455.107338 157.417475 
L 454.173913 155.925143 
L 453.400754 154.566937 
L 451.60244 151.716399 
L 449.538862 148.865861 
L 449.06087 148.241304 
L 447.463589 146.015323 
L 445.213684 143.164785 
L 443.947826 141.65322 
L 442.879072 140.314247 
L 440.519189 137.463709 
L 438.834783 135.512345 
L 438.0917 134.613171 
L 435.762151 131.762633 
L 433.721739 129.313498 
L 433.403509 128.912095 
L 431.262201 126.061556 
L 429.132061 123.211018 
L 428.608696 122.47357 
L 427.211326 120.36048 
L 425.390551 117.509942 
L 423.594552 114.659404 
L 423.495652 114.495107 
L 422.002694 111.808866 
L 420.410552 108.958328 
L 418.771454 106.10779 
L 418.382609 105.44001 
L 417.197826 103.257252 
L 415.562207 100.406714 
L 413.779872 97.556176 
L 413.269565 96.785913 
L 411.952903 94.705638 
L 409.964247 91.8551 
L 408.156522 89.535688 
L 407.749527 89.004561 
L 405.393274 86.154023 
L 403.043478 83.654777 
L 402.708001 83.303485 
L 399.77584 80.452947 
L 397.930435 78.843386 
L 396.432775 77.602409 
L 392.817391 74.887002 
L 392.621745 74.751871 
L 388.217949 71.901333 
L 387.704348 71.589294 
L 382.965652 69.050795 
L 382.591304 68.859186 
L 377.478261 66.604134 
L 376.35972 66.200257 
L 372.365217 64.769167 
L 367.252174 63.364539 
L 367.180862 63.349719 
L 362.13913 62.269757 
L 357.026087 61.544927 
L 351.913043 61.157885 
L 346.8 61.09117 
L 341.686957 61.341913 
L 336.573913 61.92162 
L 331.46087 62.857069 
L 329.506268 63.349719 
L 326.347826 64.129414 
L 321.234783 65.795073 
L 320.215436 66.200257 
L 316.121739 67.857168 
L 313.665628 69.050795 
L 311.008696 70.397715 
L 308.429348 71.901333 
L 305.895652 73.480234 
L 304.052517 74.751871 
L 300.782609 77.224262 
L 300.315117 77.602409 
L 297.046393 80.452947 
L 295.669565 81.800331 
L 294.178088 83.303485 
L 291.662353 86.154023 
L 290.556522 87.570099 
L 289.428707 89.004561 
L 287.445795 91.8551 
L 285.75976 94.705638 
L 285.443478 95.310632 
L 284.211974 97.556176 
L 282.881637 100.406714 
L 281.774609 103.257252 
L 280.867861 106.10779 
L 280.330435 108.204474 
L 280.118122 108.958328 
L 279.486569 111.808866 
L 279.031615 114.659404 
L 278.744091 117.509942 
L 278.617922 120.36048 
L 278.649879 123.211018 
L 278.839391 126.061556 
L 279.18841 128.912095 
L 279.70131 131.762633 
L 280.330435 134.391506 
L 280.3783 134.613171 
L 281.13755 137.463709 
L 282.062833 140.314247 
L 283.164431 143.164785 
L 284.453491 146.015323 
L 285.443478 147.942928 
L 285.887124 148.865861 
L 287.394688 151.716399 
L 289.086359 154.566937 
L 290.556522 156.828232 
L 290.920037 157.417475 
L 292.750344 160.268013 
L 294.704146 163.118551 
L 295.669565 164.500814 
L 296.63444 165.969089 
L 298.486013 168.819628 
L 300.307421 171.670166 
L 300.782609 172.47375 
L 301.88566 174.520704 
L 303.254885 177.371242 
L 304.42176 180.22178 
L 305.34253 183.072318 
L 305.895652 185.54422 
L 305.969397 185.922856 
L 306.254507 188.773394 
L 306.266775 191.623932 
L 306.007345 194.47447 
L 305.895652 195.083954 
L 305.42255 197.325008 
L 304.548031 200.175546 
L 303.440588 203.026084 
L 302.146268 205.876622 
L 300.782609 208.589202 
L 300.706662 208.727161 
L 299.017902 211.577699 
L 297.315103 214.428237 
L 295.669565 217.234695 
L 295.642082 217.278775 
L 293.881625 220.129313 
L 292.247159 222.979851 
L 290.755391 225.830389 
L 290.556522 226.239038 
L 289.298581 228.680927 
L 288.00028 231.531465 
L 286.878461 234.382003 
L 285.928016 237.232541 
L 285.443478 238.97389 
L 285.108642 240.083079 
L 284.412854 242.933617 
L 283.890246 245.784155 
L 283.535804 248.634694 
L 283.34642 251.485232 
L 283.321135 254.33577 
L 283.46136 257.186308 
L 283.771104 260.036846 
L 284.257231 262.887384 
L 284.929768 265.737922 
L 285.443478 267.436938 
L 285.767098 268.58846 
L 286.750484 271.438998 
L 287.950509 274.289536 
L 289.392179 277.140074 
L 290.556522 279.1102 
L 291.063642 279.990612 
L 292.931037 282.84115 
L 295.127141 285.691689 
L 295.669565 286.327547 
L 297.590841 288.542227 
L 300.4433 291.392765 
L 300.782609 291.70527 
L 303.693773 294.243303 
L 305.895652 295.958149 
L 307.489916 297.093841 
L 311.008696 299.391835 
L 311.969422 299.944379 
L 316.121739 302.189922 
L 317.448154 302.794917 
L 321.234783 304.459834 
L 324.601177 305.645455 
L 326.347826 306.25315 
L 331.46087 307.637581 
L 335.963772 308.495993 
z
M 335.96288 288.542227 
L 331.46087 287.136376 
L 328.131973 285.691689 
L 326.347826 284.857132 
L 322.945107 282.84115 
L 321.234783 281.715736 
L 319.02466 279.990612 
L 316.121739 277.392569 
L 315.871362 277.140074 
L 313.368068 274.289536 
L 311.283323 271.438998 
L 311.008696 270.995775 
L 309.608606 268.58846 
L 308.269341 265.737922 
L 307.230856 262.887384 
L 306.4711 260.036846 
L 305.972816 257.186308 
L 305.895652 256.312947 
L 305.720803 254.33577 
L 305.708348 251.485232 
L 305.895652 249.073329 
L 305.929268 248.634694 
L 306.372368 245.784155 
L 307.034947 242.933617 
L 307.911822 240.083079 
L 308.996693 237.232541 
L 310.281027 234.382003 
L 311.008696 232.958301 
L 311.736645 231.531465 
L 313.323466 228.680927 
L 315.022331 225.830389 
L 316.121739 224.057038 
L 316.771792 222.979851 
L 318.482654 220.129313 
L 320.142482 217.278775 
L 321.234783 215.297136 
L 321.676887 214.428237 
L 322.990325 211.577699 
L 324.13168 208.727161 
L 325.092023 205.876622 
L 325.868322 203.026084 
L 326.347826 200.730003 
L 326.448067 200.175546 
L 326.809683 197.325008 
L 327.016308 194.47447 
L 327.07465 191.623932 
L 326.988584 188.773394 
L 326.75878 185.922856 
L 326.382613 183.072318 
L 326.347826 182.883477 
L 325.783714 180.22178 
L 325.00483 177.371242 
L 324.047055 174.520704 
L 322.907606 171.670166 
L 321.586559 168.819628 
L 321.234783 168.145092 
L 319.980588 165.969089 
L 318.201922 163.118551 
L 316.318306 160.268013 
L 316.121739 159.982706 
L 314.267797 157.417475 
L 312.224511 154.566937 
L 311.008696 152.833792 
L 310.208805 151.716399 
L 308.266862 148.865861 
L 306.484461 146.015323 
L 305.895652 144.988397 
L 304.841859 143.164785 
L 303.384509 140.314247 
L 302.137455 137.463709 
L 301.099334 134.613171 
L 300.782609 133.539286 
L 300.245713 131.762633 
L 299.593683 128.912095 
L 299.153787 126.061556 
L 298.924098 123.211018 
L 298.904999 120.36048 
L 299.099574 117.509942 
L 299.51399 114.659404 
L 300.157915 111.808866 
L 300.782609 109.786902 
L 301.03642 108.958328 
L 302.147844 106.10779 
L 303.535514 103.257252 
L 305.227904 100.406714 
L 305.895652 99.438978 
L 307.25447 97.556176 
L 309.660826 94.705638 
L 311.008696 93.309822 
L 312.544404 91.8551 
L 315.980444 89.004561 
L 316.121739 88.897263 
L 320.271467 86.154023 
L 321.234783 85.573068 
L 325.786475 83.303485 
L 326.347826 83.041017 
L 331.46087 81.149046 
L 334.090764 80.452947 
L 336.573913 79.810394 
L 341.686957 78.970403 
L 346.8 78.603633 
L 351.913043 78.692416 
L 357.026087 79.239362 
L 362.13913 80.26746 
L 362.774691 80.452947 
L 367.252174 81.790907 
L 370.996632 83.303485 
L 372.365217 83.8828 
L 376.661957 86.154023 
L 377.478261 86.616274 
L 381.059056 89.004561 
L 382.591304 90.121731 
L 384.706536 91.8551 
L 387.704348 94.587193 
L 387.824631 94.705638 
L 390.520299 97.556176 
L 392.817391 100.285609 
L 392.915497 100.406714 
L 395.085488 103.257252 
L 397.065535 106.10779 
L 397.930435 107.422513 
L 398.938633 108.958328 
L 400.744245 111.808866 
L 402.510893 114.659404 
L 403.043478 115.500987 
L 404.33937 117.509942 
L 406.241217 120.36048 
L 408.156522 123.080711 
L 408.250589 123.211018 
L 410.474746 126.061556 
L 412.852014 128.912095 
L 413.269565 129.369592 
L 415.463656 131.762633 
L 418.212233 134.613171 
L 418.382609 134.77746 
L 421.128597 137.463709 
L 423.495652 139.74924 
L 424.071946 140.314247 
L 427.025294 143.164785 
L 428.608696 144.725024 
L 429.892249 146.015323 
L 432.619622 148.865861 
L 433.721739 150.078782 
L 435.1956 151.716399 
L 437.560965 154.566937 
L 438.834783 156.257987 
L 439.720821 157.417475 
L 441.699904 160.268013 
L 443.401015 163.118551 
L 443.947826 164.155931 
L 444.954838 165.969089 
L 446.31082 168.819628 
L 447.427435 171.670166 
L 448.325545 174.520704 
L 449.022342 177.371242 
L 449.06087 177.582256 
L 449.601535 180.22178 
L 449.98182 183.072318 
L 450.165108 185.922856 
L 450.154919 188.773394 
L 449.950646 191.623932 
L 449.547499 194.47447 
L 449.06087 196.756135 
L 448.952537 197.325008 
L 448.228246 200.175546 
L 447.296124 203.026084 
L 446.136499 205.876622 
L 444.725287 208.727161 
L 443.947826 210.082872 
L 443.130834 211.577699 
L 441.343058 214.428237 
L 439.250038 217.278775 
L 438.834783 217.799245 
L 436.988316 220.129313 
L 434.436574 222.979851 
L 433.721739 223.72944 
L 431.675886 225.830389 
L 428.648805 228.680927 
L 428.608696 228.718187 
L 425.470216 231.531465 
L 423.495652 233.238976 
L 422.110319 234.382003 
L 418.675468 237.232541 
L 418.382609 237.48474 
L 415.257686 240.083079 
L 413.269565 241.80897 
L 411.93422 242.933617 
L 408.801576 245.784155 
L 408.156522 246.422572 
L 405.901841 248.634694 
L 403.241603 251.485232 
L 403.043478 251.717147 
L 400.810482 254.33577 
L 398.548298 257.186308 
L 397.930435 258.008422 
L 396.400086 260.036846 
L 394.305307 262.887384 
L 392.817391 264.902493 
L 392.185164 265.737922 
L 389.978768 268.58846 
L 387.704348 271.345841 
L 387.622982 271.438998 
L 384.993303 274.289536 
L 382.591304 276.656746 
L 382.049557 277.140074 
L 378.59117 279.990612 
L 377.478261 280.832758 
L 374.39033 282.84115 
L 372.365217 284.05718 
L 369.008473 285.691689 
L 367.252174 286.495683 
L 362.13913 288.26115 
L 360.9386 288.542227 
L 357.026087 289.433163 
L 351.913043 290.053932 
L 346.8 290.14618 
L 341.686957 289.710453 
L 336.573913 288.724387 
z
" clip-path="url(#pb2d5c1f106)" style="fill: #36106b; fill-opacity: 0.6"/>
    <path d="M 336.573913 288.724387 
L 341.686957 289.710453 
L 346.8 290.14618 
L 351.913043 290.053932 
L 357.026087 289.433163 
L 360.9386 288.542227 
L 362.13913 288.26115 
L 367.252174 286.495683 
L 369.008473 285.691689 
L 372.365217 284.05718 
L 374.39033 282.84115 
L 377.478261 280.832758 
L 378.59117 279.990612 
L 382.049557 277.140074 
L 382.591304 276.656746 
L 384.993303 274.289536 
L 387.622982 271.438998 
L 387.704348 271.345841 
L 389.978768 268.58846 
L 392.185164 265.737922 
L 392.817391 264.902493 
L 394.305307 262.887384 
L 396.400086 260.036846 
L 397.930435 258.008422 
L 398.548298 257.186308 
L 400.810482 254.33577 
L 403.043478 251.717147 
L 403.241603 251.485232 
L 405.901841 248.634694 
L 408.156522 246.422572 
L 408.801576 245.784155 
L 411.93422 242.933617 
L 413.269565 241.80897 
L 415.257686 240.083079 
L 418.382609 237.48474 
L 418.675468 237.232541 
L 422.110319 234.382003 
L 423.495652 233.238976 
L 425.470216 231.531465 
L 428.608696 228.718187 
L 428.648805 228.680927 
L 431.675886 225.830389 
L 433.721739 223.72944 
L 434.436574 222.979851 
L 436.988316 220.129313 
L 438.834783 217.799245 
L 439.250038 217.278775 
L 441.343058 214.428237 
L 443.130834 211.577699 
L 443.947826 210.082872 
L 444.725287 208.727161 
L 446.136499 205.876622 
L 447.296124 203.026084 
L 448.228246 200.175546 
L 448.952537 197.325008 
L 449.06087 196.756135 
L 449.547499 194.47447 
L 449.950646 191.623932 
L 450.154919 188.773394 
L 450.165108 185.922856 
L 449.98182 183.072318 
L 449.601535 180.22178 
L 449.06087 177.582256 
L 449.022342 177.371242 
L 448.325545 174.520704 
L 447.427435 171.670166 
L 446.31082 168.819628 
L 444.954838 165.969089 
L 443.947826 164.155931 
L 443.401015 163.118551 
L 441.699904 160.268013 
L 439.720821 157.417475 
L 438.834783 156.257987 
L 437.560965 154.566937 
L 435.1956 151.716399 
L 433.721739 150.078782 
L 432.619622 148.865861 
L 429.892249 146.015323 
L 428.608696 144.725024 
L 427.025294 143.164785 
L 424.071946 140.314247 
L 423.495652 139.74924 
L 421.128597 137.463709 
L 418.382609 134.77746 
L 418.212233 134.613171 
L 415.463656 131.762633 
L 413.269565 129.369592 
L 412.852014 128.912095 
L 410.474746 126.061556 
L 408.250589 123.211018 
L 408.156522 123.080711 
L 406.241217 120.36048 
L 404.33937 117.509942 
L 403.043478 115.500987 
L 402.510893 114.659404 
L 400.744245 111.808866 
L 398.938633 108.958328 
L 397.930435 107.422513 
L 397.065535 106.10779 
L 395.085488 103.257252 
L 392.915497 100.406714 
L 392.817391 100.285609 
L 390.520299 97.556176 
L 387.824631 94.705638 
L 387.704348 94.587193 
L 384.706536 91.8551 
L 382.591304 90.121731 
L 381.059056 89.004561 
L 377.478261 86.616274 
L 376.661957 86.154023 
L 372.365217 83.8828 
L 370.996632 83.303485 
L 367.252174 81.790907 
L 362.774691 80.452947 
L 362.13913 80.26746 
L 357.026087 79.239362 
L 351.913043 78.692416 
L 346.8 78.603633 
L 341.686957 78.970403 
L 336.573913 79.810394 
L 334.090764 80.452947 
L 331.46087 81.149046 
L 326.347826 83.041017 
L 325.786475 83.303485 
L 321.234783 85.573068 
L 320.271467 86.154023 
L 316.121739 88.897263 
L 315.980444 89.004561 
L 312.544404 91.8551 
L 311.008696 93.309822 
L 309.660826 94.705638 
L 307.25447 97.556176 
L 305.895652 99.438978 
L 305.227904 100.406714 
L 303.535514 103.257252 
L 302.147844 106.10779 
L 301.03642 108.958328 
L 300.782609 109.786902 
L 300.157915 111.808866 
L 299.51399 114.659404 
L 299.099574 117.509942 
L 298.904999 120.36048 
L 298.924098 123.211018 
L 299.153787 126.061556 
L 299.593683 128.912095 
L 300.245713 131.762633 
L 300.782609 133.539286 
L 301.099334 134.613171 
L 302.137455 137.463709 
L 303.384509 140.314247 
L 304.841859 143.164785 
L 305.895652 144.988397 
L 306.484461 146.015323 
L 308.266862 148.865861 
L 310.208805 151.716399 
L 311.008696 152.833792 
L 312.224511 154.566937 
L 314.267797 157.417475 
L 316.121739 159.982706 
L 316.318306 160.268013 
L 318.201922 163.118551 
L 319.980588 165.969089 
L 321.234783 168.145092 
L 321.586559 168.819628 
L 322.907606 171.670166 
L 324.047055 174.520704 
L 325.00483 177.371242 
L 325.783714 180.22178 
L 326.347826 182.883477 
L 326.382613 183.072318 
L 326.75878 185.922856 
L 326.988584 188.773394 
L 327.07465 191.623932 
L 327.016308 194.47447 
L 326.809683 197.325008 
L 326.448067 200.175546 
L 326.347826 200.730003 
L 325.868322 203.026084 
L 325.092023 205.876622 
L 324.13168 208.727161 
L 322.990325 211.577699 
L 321.676887 214.428237 
L 321.234783 215.297136 
L 320.142482 217.278775 
L 318.482654 220.129313 
L 316.771792 222.979851 
L 316.121739 224.057038 
L 315.022331 225.830389 
L 313.323466 228.680927 
L 311.736645 231.531465 
L 311.008696 232.958301 
L 310.281027 234.382003 
L 308.996693 237.232541 
L 307.911822 240.083079 
L 307.034947 242.933617 
L 306.372368 245.784155 
L 305.929268 248.634694 
L 305.895652 249.073329 
L 305.708348 251.485232 
L 305.720803 254.33577 
L 305.895652 256.312947 
L 305.972816 257.186308 
L 306.4711 260.036846 
L 307.230856 262.887384 
L 308.269341 265.737922 
L 309.608606 268.58846 
L 311.008696 270.995775 
L 311.283323 271.438998 
L 313.368068 274.289536 
L 315.871362 277.140074 
L 316.121739 277.392569 
L 319.02466 279.990612 
L 321.234783 281.715736 
L 322.945107 282.84115 
L 326.347826 284.857132 
L 328.131973 285.691689 
L 331.46087 287.136376 
L 335.96288 288.542227 
z
M 338.011141 268.58846 
L 336.573913 267.863227 
L 333.778721 265.737922 
L 331.46087 263.51758 
L 330.95657 262.887384 
L 329.195999 260.036846 
L 327.970673 257.186308 
L 327.235229 254.33577 
L 326.945837 251.485232 
L 327.057869 248.634694 
L 327.523952 245.784155 
L 328.292639 242.933617 
L 329.307934 240.083079 
L 330.509833 237.232541 
L 331.46087 235.203438 
L 331.864532 234.382003 
L 333.317535 231.531465 
L 334.71098 228.680927 
L 335.995896 225.830389 
L 336.573913 224.426625 
L 337.138058 222.979851 
L 338.087206 220.129313 
L 338.842388 217.278775 
L 339.422394 214.428237 
L 339.849507 211.577699 
L 340.146829 208.727161 
L 340.336385 205.876622 
L 340.437888 203.026084 
L 340.468009 200.175546 
L 340.439995 197.325008 
L 340.363501 194.47447 
L 340.244549 191.623932 
L 340.085527 188.773394 
L 339.88519 185.922856 
L 339.638639 183.072318 
L 339.33726 180.22178 
L 338.968646 177.371242 
L 338.516534 174.520704 
L 337.960798 171.670166 
L 337.277591 168.819628 
L 336.573913 166.407744 
L 336.43006 165.969089 
L 335.35107 163.118551 
L 334.082411 160.268013 
L 332.611481 157.417475 
L 331.46087 155.435096 
L 330.927303 154.566937 
L 329.074974 151.716399 
L 327.125981 148.865861 
L 326.347826 147.74193 
L 325.162724 146.015323 
L 323.276692 143.164785 
L 321.505274 140.314247 
L 321.234783 139.834537 
L 319.957568 137.463709 
L 318.638671 134.613171 
L 317.560933 131.762633 
L 316.742794 128.912095 
L 316.199796 126.061556 
L 316.121739 125.182172 
L 315.95424 123.211018 
L 316.001009 120.36048 
L 316.121739 119.361286 
L 316.360568 117.509942 
L 317.060755 114.659404 
L 318.115572 111.808866 
L 319.550244 108.958328 
L 321.234783 106.34935 
L 321.413745 106.10779 
L 323.964856 103.257252 
L 326.347826 101.050222 
L 327.204523 100.406714 
L 331.46087 97.648243 
L 331.652861 97.556176 
L 336.573913 95.441732 
L 339.275246 94.705638 
L 341.686957 94.09628 
L 346.8 93.505437 
L 351.913043 93.602755 
L 357.026087 94.382557 
L 358.161957 94.705638 
L 362.13913 95.907878 
L 365.82985 97.556176 
L 367.252174 98.244699 
L 370.680487 100.406714 
L 372.365217 101.575081 
L 374.381439 103.257252 
L 377.469088 106.10779 
L 377.478261 106.116977 
L 379.990429 108.958328 
L 382.313352 111.808866 
L 382.591304 112.167515 
L 384.385956 114.659404 
L 386.390182 117.509942 
L 387.704348 119.353732 
L 388.394527 120.36048 
L 390.438608 123.211018 
L 392.678679 126.061556 
L 392.817391 126.220808 
L 395.101616 128.912095 
L 397.868832 131.762633 
L 397.930435 131.81849 
L 400.904336 134.613171 
L 403.043478 136.388552 
L 404.282913 137.463709 
L 407.890049 140.314247 
L 408.156522 140.507189 
L 411.56415 143.164785 
L 413.269565 144.434428 
L 415.233457 146.015323 
L 418.382609 148.534203 
L 418.767927 148.865861 
L 422.054236 151.716399 
L 423.495652 153.021824 
L 425.090309 154.566937 
L 427.82434 157.417475 
L 428.608696 158.299246 
L 430.283856 160.268013 
L 432.439724 163.118551 
L 433.721739 165.05586 
L 434.320323 165.969089 
L 435.959509 168.819628 
L 437.317287 171.670166 
L 438.414474 174.520704 
L 438.834783 175.901565 
L 439.302407 177.371242 
L 439.975672 180.22178 
L 440.413525 183.072318 
L 440.623888 185.922856 
L 440.610315 188.773394 
L 440.371969 191.623932 
L 439.903549 194.47447 
L 439.195181 197.325008 
L 438.834783 198.414023 
L 438.275619 200.175546 
L 437.12918 203.026084 
L 435.708897 205.876622 
L 433.989346 208.727161 
L 433.721739 209.119781 
L 432.020385 211.577699 
L 429.728964 214.428237 
L 428.608696 215.680772 
L 427.100359 217.278775 
L 424.129953 220.129313 
L 423.495652 220.703711 
L 420.767454 222.979851 
L 418.382609 224.866128 
L 417.028594 225.830389 
L 413.269565 228.474707 
L 412.939091 228.680927 
L 408.511699 231.531465 
L 408.156522 231.770402 
L 403.860352 234.382003 
L 403.043478 234.91952 
L 399.191856 237.232541 
L 397.930435 238.082681 
L 394.725527 240.083079 
L 392.817391 241.463166 
L 390.649867 242.933617 
L 387.704348 245.305675 
L 387.07324 245.784155 
L 383.865664 248.634694 
L 382.591304 249.944651 
L 380.986794 251.485232 
L 378.340513 254.33577 
L 377.478261 255.322631 
L 375.672077 257.186308 
L 372.978101 260.036846 
L 372.365217 260.669793 
L 369.839573 262.887384 
L 367.252174 265.044695 
L 366.192173 265.737922 
L 362.13913 268.193119 
L 361.188919 268.58846 
L 357.026087 270.182026 
L 351.913043 271.186483 
L 346.8 271.198474 
L 341.686957 270.152242 
z
" clip-path="url(#pb2d5c1f106)" style="fill: #6a1c81; fill-opacity: 0.6"/>
    <path d="M 341.686957 270.152242 
L 346.8 271.198474 
L 351.913043 271.186483 
L 357.026087 270.182026 
L 361.188919 268.58846 
L 362.13913 268.193119 
L 366.192173 265.737922 
L 367.252174 265.044695 
L 369.839573 262.887384 
L 372.365217 260.669793 
L 372.978101 260.036846 
L 375.672077 257.186308 
L 377.478261 255.322631 
L 378.340513 254.33577 
L 380.986794 251.485232 
L 382.591304 249.944651 
L 383.865664 248.634694 
L 387.07324 245.784155 
L 387.704348 245.305675 
L 390.649867 242.933617 
L 392.817391 241.463166 
L 394.725527 240.083079 
L 397.930435 238.082681 
L 399.191856 237.232541 
L 403.043478 234.91952 
L 403.860352 234.382003 
L 408.156522 231.770402 
L 408.511699 231.531465 
L 412.939091 228.680927 
L 413.269565 228.474707 
L 417.028594 225.830389 
L 418.382609 224.866128 
L 420.767454 222.979851 
L 423.495652 220.703711 
L 424.129953 220.129313 
L 427.100359 217.278775 
L 428.608696 215.680772 
L 429.728964 214.428237 
L 432.020385 211.577699 
L 433.721739 209.119781 
L 433.989346 208.727161 
L 435.708897 205.876622 
L 437.12918 203.026084 
L 438.275619 200.175546 
L 438.834783 198.414023 
L 439.195181 197.325008 
L 439.903549 194.47447 
L 440.371969 191.623932 
L 440.610315 188.773394 
L 440.623888 185.922856 
L 440.413525 183.072318 
L 439.975672 180.22178 
L 439.302407 177.371242 
L 438.834783 175.901565 
L 438.414474 174.520704 
L 437.317287 171.670166 
L 435.959509 168.819628 
L 434.320323 165.969089 
L 433.721739 165.05586 
L 432.439724 163.118551 
L 430.283856 160.268013 
L 428.608696 158.299246 
L 427.82434 157.417475 
L 425.090309 154.566937 
L 423.495652 153.021824 
L 422.054236 151.716399 
L 418.767927 148.865861 
L 418.382609 148.534203 
L 415.233457 146.015323 
L 413.269565 144.434428 
L 411.56415 143.164785 
L 408.156522 140.507189 
L 407.890049 140.314247 
L 404.282913 137.463709 
L 403.043478 136.388552 
L 400.904336 134.613171 
L 397.930435 131.81849 
L 397.868832 131.762633 
L 395.101616 128.912095 
L 392.817391 126.220808 
L 392.678679 126.061556 
L 390.438608 123.211018 
L 388.394527 120.36048 
L 387.704348 119.353732 
L 386.390182 117.509942 
L 384.385956 114.659404 
L 382.591304 112.167515 
L 382.313352 111.808866 
L 379.990429 108.958328 
L 377.478261 106.116977 
L 377.469088 106.10779 
L 374.381439 103.257252 
L 372.365217 101.575081 
L 370.680487 100.406714 
L 367.252174 98.244699 
L 365.82985 97.556176 
L 362.13913 95.907878 
L 358.161957 94.705638 
L 357.026087 94.382557 
L 351.913043 93.602755 
L 346.8 93.505437 
L 341.686957 94.09628 
L 339.275246 94.705638 
L 336.573913 95.441732 
L 331.652861 97.556176 
L 331.46087 97.648243 
L 327.204523 100.406714 
L 326.347826 101.050222 
L 323.964856 103.257252 
L 321.413745 106.10779 
L 321.234783 106.34935 
L 319.550244 108.958328 
L 318.115572 111.808866 
L 317.060755 114.659404 
L 316.360568 117.509942 
L 316.121739 119.361286 
L 316.001009 120.36048 
L 315.95424 123.211018 
L 316.121739 125.182172 
L 316.199796 126.061556 
L 316.742794 128.912095 
L 317.560933 131.762633 
L 318.638671 134.613171 
L 319.957568 137.463709 
L 321.234783 139.834537 
L 321.505274 140.314247 
L 323.276692 143.164785 
L 325.162724 146.015323 
L 326.347826 147.74193 
L 327.125981 148.865861 
L 329.074974 151.716399 
L 330.927303 154.566937 
L 331.46087 155.435096 
L 332.611481 157.417475 
L 334.082411 160.268013 
L 335.35107 163.118551 
L 336.43006 165.969089 
L 336.573913 166.407744 
L 337.277591 168.819628 
L 337.960798 171.670166 
L 338.516534 174.520704 
L 338.968646 177.371242 
L 339.33726 180.22178 
L 339.638639 183.072318 
L 339.88519 185.922856 
L 340.085527 188.773394 
L 340.244549 191.623932 
L 340.363501 194.47447 
L 340.439995 197.325008 
L 340.468009 200.175546 
L 340.437888 203.026084 
L 340.336385 205.876622 
L 340.146829 208.727161 
L 339.849507 211.577699 
L 339.422394 214.428237 
L 338.842388 217.278775 
L 338.087206 220.129313 
L 337.138058 222.979851 
L 336.573913 224.426625 
L 335.995896 225.830389 
L 334.71098 228.680927 
L 333.317535 231.531465 
L 331.864532 234.382003 
L 331.46087 235.203438 
L 330.509833 237.232541 
L 329.307934 240.083079 
L 328.292639 242.933617 
L 327.523952 245.784155 
L 327.057869 248.634694 
L 326.945837 251.485232 
L 327.235229 254.33577 
L 327.970673 257.186308 
L 329.195999 260.036846 
L 330.95657 262.887384 
L 331.46087 263.51758 
L 333.778721 265.737922 
L 336.573913 267.863227 
L 338.011141 268.58846 
z
M 367.175984 231.531465 
L 362.13913 228.853287 
L 361.975481 228.680927 
L 359.628096 225.830389 
L 357.920149 222.979851 
L 357.026087 221.163226 
L 356.624626 220.129313 
L 355.593347 217.278775 
L 354.702417 214.428237 
L 353.924897 211.577699 
L 353.243441 208.727161 
L 352.646499 205.876622 
L 352.126017 203.026084 
L 351.913043 201.714349 
L 351.666483 200.175546 
L 351.264573 197.325008 
L 350.925338 194.47447 
L 350.645804 191.623932 
L 350.422369 188.773394 
L 350.250626 185.922856 
L 350.125156 183.072318 
L 350.039293 180.22178 
L 349.984834 177.371242 
L 349.951676 174.520704 
L 349.927384 171.670166 
L 349.896668 168.819628 
L 349.840757 165.969089 
L 349.736679 163.118551 
L 349.556424 160.268013 
L 349.266029 157.417475 
L 348.824604 154.566937 
L 348.183366 151.716399 
L 347.284836 148.865861 
L 346.8 147.637601 
L 346.152262 146.015323 
L 344.824404 143.164785 
L 343.271621 140.314247 
L 341.686957 137.685558 
L 341.566492 137.463709 
L 340.160967 134.613171 
L 338.918288 131.762633 
L 337.968927 128.912095 
L 337.454272 126.061556 
L 337.519977 123.211018 
L 338.310342 120.36048 
L 339.964836 117.509942 
L 341.686957 115.627376 
L 343.350436 114.659404 
L 346.8 113.207263 
L 351.913043 112.925131 
L 357.026087 114.260405 
L 357.75727 114.659404 
L 362.13913 117.302389 
L 362.376556 117.509942 
L 365.360865 120.36048 
L 367.252174 122.191343 
L 368.09091 123.211018 
L 370.486283 126.061556 
L 372.365217 128.027188 
L 373.097876 128.912095 
L 375.866314 131.762633 
L 377.478261 133.065453 
L 379.209672 134.613171 
L 382.591304 136.936941 
L 383.295081 137.463709 
L 387.704348 140.089501 
L 388.048739 140.314247 
L 392.817391 142.899027 
L 393.256675 143.164785 
L 397.930435 145.622809 
L 398.586043 146.015323 
L 403.043478 148.443859 
L 403.71582 148.865861 
L 408.156522 151.519667 
L 408.442395 151.716399 
L 412.62351 154.566937 
L 413.269565 155.012087 
L 416.296047 157.417475 
L 418.382609 159.176107 
L 419.53874 160.268013 
L 422.316527 163.118551 
L 423.495652 164.466205 
L 424.708306 165.969089 
L 426.720082 168.819628 
L 428.402977 171.670166 
L 428.608696 172.085679 
L 429.774201 174.520704 
L 430.844856 177.371242 
L 431.629947 180.22178 
L 432.14112 183.072318 
L 432.385892 185.922856 
L 432.367476 188.773394 
L 432.084659 191.623932 
L 431.531705 194.47447 
L 430.698289 197.325008 
L 429.569452 200.175546 
L 428.608696 202.096794 
L 428.125792 203.026084 
L 426.348126 205.876622 
L 424.21419 208.727161 
L 423.495652 209.574132 
L 421.635782 211.577699 
L 418.634438 214.428237 
L 418.382609 214.650826 
L 415.001292 217.278775 
L 413.269565 218.542877 
L 410.709134 220.129313 
L 408.156522 221.682568 
L 405.570365 222.979851 
L 403.043478 224.281185 
L 399.325814 225.830389 
L 397.930435 226.454614 
L 392.817391 228.28368 
L 391.349074 228.680927 
L 387.704348 229.826844 
L 382.591304 231.039112 
L 379.348511 231.531465 
L 377.478261 231.894195 
L 372.365217 232.226603 
L 367.252174 231.561491 
z
" clip-path="url(#pb2d5c1f106)" style="fill: #9c2e7f; fill-opacity: 0.6"/>
    <path d="M 367.252174 231.561491 
L 372.365217 232.226603 
L 377.478261 231.894195 
L 379.348511 231.531465 
L 382.591304 231.039112 
L 387.704348 229.826844 
L 391.349074 228.680927 
L 392.817391 228.28368 
L 397.930435 226.454614 
L 399.325814 225.830389 
L 403.043478 224.281185 
L 405.570365 222.979851 
L 408.156522 221.682568 
L 410.709134 220.129313 
L 413.269565 218.542877 
L 415.001292 217.278775 
L 418.382609 214.650826 
L 418.634438 214.428237 
L 421.635782 211.577699 
L 423.495652 209.574132 
L 424.21419 208.727161 
L 426.348126 205.876622 
L 428.125792 203.026084 
L 428.608696 202.096794 
L 429.569452 200.175546 
L 430.698289 197.325008 
L 431.531705 194.47447 
L 432.084659 191.623932 
L 432.367476 188.773394 
L 432.385892 185.922856 
L 432.14112 183.072318 
L 431.629947 180.22178 
L 430.844856 177.371242 
L 429.774201 174.520704 
L 428.608696 172.085679 
L 428.402977 171.670166 
L 426.720082 168.819628 
L 424.708306 165.969089 
L 423.495652 164.466205 
L 422.316527 163.118551 
L 419.53874 160.268013 
L 418.382609 159.176107 
L 416.296047 157.417475 
L 413.269565 155.012087 
L 412.62351 154.566937 
L 408.442395 151.716399 
L 408.156522 151.519667 
L 403.71582 148.865861 
L 403.043478 148.443859 
L 398.586043 146.015323 
L 397.930435 145.622809 
L 393.256675 143.164785 
L 392.817391 142.899027 
L 388.048739 140.314247 
L 387.704348 140.089501 
L 383.295081 137.463709 
L 382.591304 136.936941 
L 379.209672 134.613171 
L 377.478261 133.065453 
L 375.866314 131.762633 
L 373.097876 128.912095 
L 372.365217 128.027188 
L 370.486283 126.061556 
L 368.09091 123.211018 
L 367.252174 122.191343 
L 365.360865 120.36048 
L 362.376556 117.509942 
L 362.13913 117.302389 
L 357.75727 114.659404 
L 357.026087 114.260405 
L 351.913043 112.925131 
L 346.8 113.207263 
L 343.350436 114.659404 
L 341.686957 115.627376 
L 339.964836 117.509942 
L 338.310342 120.36048 
L 337.519977 123.211018 
L 337.454272 126.061556 
L 337.968927 128.912095 
L 338.918288 131.762633 
L 340.160967 134.613171 
L 341.566492 137.463709 
L 341.686957 137.685558 
L 343.271621 140.314247 
L 344.824404 143.164785 
L 346.152262 146.015323 
L 346.8 147.637601 
L 347.284836 148.865861 
L 348.183366 151.716399 
L 348.824604 154.566937 
L 349.266029 157.417475 
L 349.556424 160.268013 
L 349.736679 163.118551 
L 349.840757 165.969089 
L 349.896668 168.819628 
L 349.927384 171.670166 
L 349.951676 174.520704 
L 349.984834 177.371242 
L 350.039293 180.22178 
L 350.125156 183.072318 
L 350.250626 185.922856 
L 350.422369 188.773394 
L 350.645804 191.623932 
L 350.925338 194.47447 
L 351.264573 197.325008 
L 351.666483 200.175546 
L 351.913043 201.714349 
L 352.126017 203.026084 
L 352.646499 205.876622 
L 353.243441 208.727161 
L 353.924897 211.577699 
L 354.702417 214.428237 
L 355.593347 217.278775 
L 356.624626 220.129313 
L 357.026087 221.163226 
L 357.920149 222.979851 
L 359.628096 225.830389 
L 361.975481 228.680927 
L 362.13913 228.853287 
L 367.175984 231.531465 
z
M 376.331804 217.278775 
L 372.365217 215.28378 
L 371.26143 214.428237 
L 368.18962 211.577699 
L 367.252174 210.519334 
L 365.987121 208.727161 
L 364.318396 205.876622 
L 362.983342 203.026084 
L 362.13913 200.795049 
L 361.926276 200.175546 
L 361.113889 197.325008 
L 360.488005 194.47447 
L 360.030309 191.623932 
L 359.727778 188.773394 
L 359.571578 185.922856 
L 359.55641 183.072318 
L 359.680214 180.22178 
L 359.944199 177.371242 
L 360.353231 174.520704 
L 360.916683 171.670166 
L 361.649938 168.819628 
L 362.13913 167.253892 
L 362.605532 165.969089 
L 363.860896 163.118551 
L 365.477604 160.268013 
L 367.252174 157.830876 
L 367.679842 157.417475 
L 371.389663 154.566937 
L 372.365217 153.979787 
L 377.478261 152.493803 
L 382.591304 152.273114 
L 387.704348 152.838703 
L 392.817391 154.010144 
L 394.404091 154.566937 
L 397.930435 155.709123 
L 401.767247 157.417475 
L 403.043478 157.970326 
L 407.0776 160.268013 
L 408.156522 160.89734 
L 411.199078 163.118551 
L 413.269565 164.748278 
L 414.572173 165.969089 
L 417.2875 168.819628 
L 418.382609 170.145844 
L 419.49173 171.670166 
L 421.221486 174.520704 
L 422.582862 177.371242 
L 423.495652 179.957882 
L 423.582699 180.22178 
L 424.206589 183.072318 
L 424.503777 185.922856 
L 424.477254 188.773394 
L 424.125281 191.623932 
L 423.495652 194.251078 
L 423.438481 194.47447 
L 422.359796 197.325008 
L 420.907571 200.175546 
L 419.064204 203.026084 
L 418.382609 203.912611 
L 416.653443 205.876622 
L 413.722315 208.727161 
L 413.269565 209.123307 
L 409.875144 211.577699 
L 408.156522 212.725597 
L 404.881993 214.428237 
L 403.043478 215.356227 
L 397.930435 217.236384 
L 397.746299 217.278775 
L 392.817391 218.471137 
L 387.704348 219.047336 
L 382.591304 218.88459 
L 377.478261 217.768496 
z
" clip-path="url(#pb2d5c1f106)" style="fill: #d0416f; fill-opacity: 0.6"/>
    <path d="M 377.478261 217.768496 
L 382.591304 218.88459 
L 387.704348 219.047336 
L 392.817391 218.471137 
L 397.746299 217.278775 
L 397.930435 217.236384 
L 403.043478 215.356227 
L 404.881993 214.428237 
L 408.156522 212.725597 
L 409.875144 211.577699 
L 413.269565 209.123307 
L 413.722315 208.727161 
L 416.653443 205.876622 
L 418.382609 203.912611 
L 419.064204 203.026084 
L 420.907571 200.175546 
L 422.359796 197.325008 
L 423.438481 194.47447 
L 423.495652 194.251078 
L 424.125281 191.623932 
L 424.477254 188.773394 
L 424.503777 185.922856 
L 424.206589 183.072318 
L 423.582699 180.22178 
L 423.495652 179.957882 
L 422.582862 177.371242 
L 421.221486 174.520704 
L 419.49173 171.670166 
L 418.382609 170.145844 
L 417.2875 168.819628 
L 414.572173 165.969089 
L 413.269565 164.748278 
L 411.199078 163.118551 
L 408.156522 160.89734 
L 407.0776 160.268013 
L 403.043478 157.970326 
L 401.767247 157.417475 
L 397.930435 155.709123 
L 394.404091 154.566937 
L 392.817391 154.010144 
L 387.704348 152.838703 
L 382.591304 152.273114 
L 377.478261 152.493803 
L 372.365217 153.979787 
L 371.389663 154.566937 
L 367.679842 157.417475 
L 367.252174 157.830876 
L 365.477604 160.268013 
L 363.860896 163.118551 
L 362.605532 165.969089 
L 362.13913 167.253892 
L 361.649938 168.819628 
L 360.916683 171.670166 
L 360.353231 174.520704 
L 359.944199 177.371242 
L 359.680214 180.22178 
L 359.55641 183.072318 
L 359.571578 185.922856 
L 359.727778 188.773394 
L 360.030309 191.623932 
L 360.488005 194.47447 
L 361.113889 197.325008 
L 361.926276 200.175546 
L 362.13913 200.795049 
L 362.983342 203.026084 
L 364.318396 205.876622 
L 365.987121 208.727161 
L 367.252174 210.519334 
L 368.18962 211.577699 
L 371.26143 214.428237 
L 372.365217 215.28378 
L 376.331804 217.278775 
z
M 385.483558 208.727161 
L 382.591304 207.97786 
L 378.695594 205.876622 
L 377.478261 205.070896 
L 375.380422 203.026084 
L 373.09648 200.175546 
L 372.365217 199.003956 
L 371.516794 197.325008 
L 370.429662 194.47447 
L 369.678241 191.623932 
L 369.231324 188.773394 
L 369.071684 185.922856 
L 369.194298 183.072318 
L 369.606134 180.22178 
L 370.327538 177.371242 
L 371.395586 174.520704 
L 372.365217 172.600589 
L 372.967763 171.670166 
L 375.362199 168.819628 
L 377.478261 166.899635 
L 379.130561 165.969089 
L 382.591304 164.395714 
L 387.704348 163.536477 
L 392.817391 163.83121 
L 397.930435 165.093756 
L 399.955324 165.969089 
L 403.043478 167.365261 
L 405.260982 168.819628 
L 408.156522 170.930998 
L 408.932421 171.670166 
L 411.487637 174.520704 
L 413.269565 176.995608 
L 413.493298 177.371242 
L 414.775611 180.22178 
L 415.613927 183.072318 
L 416.011003 185.922856 
L 415.966879 188.773394 
L 415.478317 191.623932 
L 414.538605 194.47447 
L 413.269565 197.061656 
L 413.112255 197.325008 
L 410.88428 200.175546 
L 408.156522 202.971032 
L 408.084444 203.026084 
L 403.774385 205.876622 
L 403.043478 206.3101 
L 397.930435 208.318474 
L 395.783538 208.727161 
L 392.817391 209.279771 
L 387.704348 209.224626 
z
" clip-path="url(#pb2d5c1f106)" style="fill: #f56b5c; fill-opacity: 0.6"/>
    <path d="M 387.704348 209.224626 
L 392.817391 209.279771 
L 395.783538 208.727161 
L 397.930435 208.318474 
L 403.043478 206.3101 
L 403.774385 205.876622 
L 408.084444 203.026084 
L 408.156522 202.971032 
L 410.88428 200.175546 
L 413.112255 197.325008 
L 413.269565 197.061656 
L 414.538605 194.47447 
L 415.478317 191.623932 
L 415.966879 188.773394 
L 416.011003 185.922856 
L 415.613927 183.072318 
L 414.775611 180.22178 
L 413.493298 177.371242 
L 413.269565 176.995608 
L 411.487637 174.520704 
L 408.932421 171.670166 
L 408.156522 170.930998 
L 405.260982 168.819628 
L 403.043478 167.365261 
L 399.955324 165.969089 
L 397.930435 165.093756 
L 392.817391 163.83121 
L 387.704348 163.536477 
L 382.591304 164.395714 
L 379.130561 165.969089 
L 377.478261 166.899635 
L 375.362199 168.819628 
L 372.967763 171.670166 
L 372.365217 172.600589 
L 371.395586 174.520704 
L 370.327538 177.371242 
L 369.606134 180.22178 
L 369.194298 183.072318 
L 369.071684 185.922856 
L 369.231324 188.773394 
L 369.678241 191.623932 
L 370.429662 194.47447 
L 371.516794 197.325008 
L 372.365217 199.003956 
L 373.09648 200.175546 
L 375.380422 203.026084 
L 377.478261 205.070896 
L 378.695594 205.876622 
L 382.591304 207.97786 
L 385.483558 208.727161 
z
M 389.465511 197.325008 
L 387.704348 196.891811 
L 384.576306 194.47447 
L 382.591304 192.14504 
L 382.315495 191.623932 
L 381.46716 188.773394 
L 381.269498 185.922856 
L 381.719547 183.072318 
L 382.591304 180.871202 
L 383.014133 180.22178 
L 386.122027 177.371242 
L 387.704348 176.377991 
L 392.817391 175.550684 
L 397.930435 176.863854 
L 398.712488 177.371242 
L 402.126068 180.22178 
L 403.043478 181.354461 
L 403.905614 183.072318 
L 404.57763 185.922856 
L 404.471414 188.773394 
L 403.577732 191.623932 
L 403.043478 192.535557 
L 401.173804 194.47447 
L 397.930435 196.819785 
L 395.894834 197.325008 
L 392.817391 197.942553 
z
" clip-path="url(#pb2d5c1f106)" style="fill: #fea772; fill-opacity: 0.6"/>
    <path d="M 392.817391 197.942553 
L 395.894834 197.325008 
L 397.930435 196.819785 
L 401.173804 194.47447 
L 403.043478 192.535557 
L 403.577732 191.623932 
L 404.471414 188.773394 
L 404.57763 185.922856 
L 403.905614 183.072318 
L 403.043478 181.354461 
L 402.126068 180.22178 
L 398.712488 177.371242 
L 397.930435 176.863854 
L 392.817391 175.550684 
L 387.704348 176.377991 
L 386.122027 177.371242 
L 383.014133 180.22178 
L 382.591304 180.871202 
L 381.719547 183.072318 
L 381.269498 185.922856 
L 381.46716 188.773394 
L 382.315495 191.623932 
L 382.591304 192.14504 
L 384.576306 194.47447 
L 387.704348 196.891811 
L 389.465511 197.325008 
z
" clip-path="url(#pb2d5c1f106)" style="fill: #fde2a3; fill-opacity: 0.6"/>
   </g>
   <g id="patch_2">
    <path d="M 34.904348 328.44976 
L 541.095652 328.44976 
L 541.095652 46.24649 
L 34.904348 46.24649 
z
" clip-path="url(#pb2d5c1f106)" style="fill: #111111; stroke: #292929; stroke-linejoin: miter"/>
   </g>
   <g id="patch_3">
    <path d="M 288 225.321065 
C 299.698362 225.321065 310.919165 221.319996 319.191156 214.199048 
C 327.463148 207.0781 332.110957 197.418666 332.110957 187.348125 
C 332.110957 177.277584 327.463148 167.61815 319.191156 160.497202 
C 310.919165 153.376254 299.698362 149.375185 288 149.375185 
C 276.301638 149.375185 265.080835 153.376254 256.808844 160.497202 
C 248.536852 167.61815 243.889043 177.277584 243.889043 187.348125 
C 243.889043 197.418666 248.536852 207.0781 256.808844 214.199048 
C 265.080835 221.319996 276.301638 225.321065 288 225.321065 
L 288 225.321065 
z
" clip-path="url(#pb2d5c1f106)" style="fill: none; stroke: #292929; stroke-linejoin: miter"/>
   </g>
   <g id="patch_4">
    <path d="M 34.904348 271.013094 
L 114.448696 271.013094 
L 114.448696 103.683156 
L 34.904348 103.683156 
L 34.904348 271.013094 
z
" clip-path="url(#pb2d5c1f106)" style="fill: none; stroke: #292929; stroke-linejoin: miter"/>
   </g>
   <g id="patch_5">
    <path d="M 461.551304 271.013094 
L 541.095652 271.013094 
L 541.095652 103.683156 
L 461.551304 103.683156 
L 461.551304 271.013094 
z
" clip-path="url(#pb2d5c1f106)" style="fill: none; stroke: #292929; stroke-linejoin: miter"/>
   </g>
   <g id="patch_6">
    <path d="M 34.904348 225.362565 
L 61.41913 225.362565 
L 61.41913 149.333685 
L 34.904348 149.333685 
L 34.904348 225.362565 
z
" clip-path="url(#pb2d5c1f106)" style="fill: none; stroke: #292929; stroke-linejoin: miter"/>
   </g>
   <g id="patch_7">
    <path d="M 514.58087 225.362565 
L 541.095652 225.362565 
L 541.095652 149.333685 
L 514.58087 149.333685 
L 514.58087 225.362565 
z
" clip-path="url(#pb2d5c1f106)" style="fill: none; stroke: #292929; stroke-linejoin: miter"/>
   </g>
   <g id="line2d_1">
    <path d="M 288 328.44976 
L 288 46.24649 
" clip-path="url(#pb2d5c1f106)" style="fill: none; stroke: #292929; stroke-width: 1.5; stroke-linecap: square"/>
   </g>
   <g id="text_1">
    <!-- Spatial Awareness: Walking Heatmap (Right Channel &amp; Central) -->
    <g style="fill: #ebebeb" transform="translate(117.923438 19.49625) scale(0.12 -0.12)">
     <defs>
      <path id="ArialMT-53" d="M 288 1472 
L 859 1522 
Q 900 1178 1048 958 
Q 1197 738 1509 602 
Q 1822 466 2213 466 
Q 2559 466 2825 569 
Q 3091 672 3220 851 
Q 3350 1031 3350 1244 
Q 3350 1459 3225 1620 
Q 3100 1781 2813 1891 
Q 2628 1963 1997 2114 
Q 1366 2266 1113 2400 
Q 784 2572 623 2826 
Q 463 3081 463 3397 
Q 463 3744 659 4045 
Q 856 4347 1234 4503 
Q 1613 4659 2075 4659 
Q 2584 4659 2973 4495 
Q 3363 4331 3572 4012 
Q 3781 3694 3797 3291 
L 3216 3247 
Q 3169 3681 2898 3903 
Q 2628 4125 2100 4125 
Q 1550 4125 1298 3923 
Q 1047 3722 1047 3438 
Q 1047 3191 1225 3031 
Q 1400 2872 2139 2705 
Q 2878 2538 3153 2413 
Q 3553 2228 3743 1945 
Q 3934 1663 3934 1294 
Q 3934 928 3725 604 
Q 3516 281 3123 101 
Q 2731 -78 2241 -78 
Q 1619 -78 1198 103 
Q 778 284 539 648 
Q 300 1013 288 1472 
z
" transform="scale(0.015625)"/>
      <path id="ArialMT-70" d="M 422 -1272 
L 422 3319 
L 934 3319 
L 934 2888 
Q 1116 3141 1344 3267 
Q 1572 3394 1897 3394 
Q 2322 3394 2647 3175 
Q 2972 2956 3137 2557 
Q 3303 2159 3303 1684 
Q 3303 1175 3120 767 
Q 2938 359 2589 142 
Q 2241 -75 1856 -75 
Q 1575 -75 1351 44 
Q 1128 163 984 344 
L 984 -1272 
L 422 -1272 
z
M 931 1641 
Q 931 1000 1190 694 
Q 1450 388 1819 388 
Q 2194 388 2461 705 
Q 2728 1022 2728 1688 
Q 2728 2322 2467 2637 
Q 2206 2953 1844 2953 
Q 1484 2953 1207 2617 
Q 931 2281 931 1641 
z
" transform="scale(0.015625)"/>
      <path id="ArialMT-61" d="M 2588 409 
Q 2275 144 1986 34 
Q 1697 -75 1366 -75 
Q 819 -75 525 192 
Q 231 459 231 875 
Q 231 1119 342 1320 
Q 453 1522 633 1644 
Q 813 1766 1038 1828 
Q 1203 1872 1538 1913 
Q 2219 1994 2541 2106 
Q 2544 2222 2544 2253 
Q 2544 2597 2384 2738 
Q 2169 2928 1744 2928 
Q 1347 2928 1158 2789 
Q 969 2650 878 2297 
L 328 2372 
Q 403 2725 575 2942 
Q 747 3159 1072 3276 
Q 1397 3394 1825 3394 
Q 2250 3394 2515 3294 
Q 2781 3194 2906 3042 
Q 3031 2891 3081 2659 
Q 3109 2516 3109 2141 
L 3109 1391 
Q 3109 606 3145 398 
Q 3181 191 3288 0 
L 2700 0 
Q 2613 175 2588 409 
z
M 2541 1666 
Q 2234 1541 1622 1453 
Q 1275 1403 1131 1340 
Q 988 1278 909 1158 
Q 831 1038 831 891 
Q 831 666 1001 516 
Q 1172 366 1500 366 
Q 1825 366 2078 508 
Q 2331 650 2450 897 
Q 2541 1088 2541 1459 
L 2541 1666 
z
" transform="scale(0.015625)"/>
      <path id="ArialMT-74" d="M 1650 503 
L 1731 6 
Q 1494 -44 1306 -44 
Q 1000 -44 831 53 
Q 663 150 594 308 
Q 525 466 525 972 
L 525 2881 
L 113 2881 
L 113 3319 
L 525 3319 
L 525 4141 
L 1084 4478 
L 1084 3319 
L 1650 3319 
L 1650 2881 
L 1084 2881 
L 1084 941 
Q 1084 700 1114 631 
Q 1144 563 1211 522 
Q 1278 481 1403 481 
Q 1497 481 1650 503 
z
" transform="scale(0.015625)"/>
      <path id="ArialMT-69" d="M 425 3934 
L 425 4581 
L 988 4581 
L 988 3934 
L 425 3934 
z
M 425 0 
L 425 3319 
L 988 3319 
L 988 0 
L 425 0 
z
" transform="scale(0.015625)"/>
      <path id="ArialMT-6c" d="M 409 0 
L 409 4581 
L 972 4581 
L 972 0 
L 409 0 
z
" transform="scale(0.015625)"/>
      <path id="ArialMT-20" transform="scale(0.015625)"/>
      <path id="ArialMT-41" d="M -9 0 
L 1750 4581 
L 2403 4581 
L 4278 0 
L 3588 0 
L 3053 1388 
L 1138 1388 
L 634 0 
L -9 0 
z
M 1313 1881 
L 2866 1881 
L 2388 3150 
Q 2169 3728 2063 4100 
Q 1975 3659 1816 3225 
L 1313 1881 
z
" transform="scale(0.015625)"/>
      <path id="ArialMT-77" d="M 1034 0 
L 19 3319 
L 600 3319 
L 1128 1403 
L 1325 691 
Q 1338 744 1497 1375 
L 2025 3319 
L 2603 3319 
L 3100 1394 
L 3266 759 
L 3456 1400 
L 4025 3319 
L 4572 3319 
L 3534 0 
L 2950 0 
L 2422 1988 
L 2294 2553 
L 1622 0 
L 1034 0 
z
" transform="scale(0.015625)"/>
      <path id="ArialMT-72" d="M 416 0 
L 416 3319 
L 922 3319 
L 922 2816 
Q 1116 3169 1280 3281 
Q 1444 3394 1641 3394 
Q 1925 3394 2219 3213 
L 2025 2691 
Q 1819 2813 1613 2813 
Q 1428 2813 1281 2702 
Q 1134 2591 1072 2394 
Q 978 2094 978 1738 
L 978 0 
L 416 0 
z
" transform="scale(0.015625)"/>
      <path id="ArialMT-65" d="M 2694 1069 
L 3275 997 
Q 3138 488 2766 206 
Q 2394 -75 1816 -75 
Q 1088 -75 661 373 
Q 234 822 234 1631 
Q 234 2469 665 2931 
Q 1097 3394 1784 3394 
Q 2450 3394 2872 2941 
Q 3294 2488 3294 1666 
Q 3294 1616 3291 1516 
L 816 1516 
Q 847 969 1125 678 
Q 1403 388 1819 388 
Q 2128 388 2347 550 
Q 2566 713 2694 1069 
z
M 847 1978 
L 2700 1978 
Q 2663 2397 2488 2606 
Q 2219 2931 1791 2931 
Q 1403 2931 1139 2672 
Q 875 2413 847 1978 
z
" transform="scale(0.015625)"/>
      <path id="ArialMT-6e" d="M 422 0 
L 422 3319 
L 928 3319 
L 928 2847 
Q 1294 3394 1984 3394 
Q 2284 3394 2536 3286 
Q 2788 3178 2913 3003 
Q 3038 2828 3088 2588 
Q 3119 2431 3119 2041 
L 3119 0 
L 2556 0 
L 2556 2019 
Q 2556 2363 2490 2533 
Q 2425 2703 2258 2804 
Q 2091 2906 1866 2906 
Q 1506 2906 1245 2678 
Q 984 2450 984 1813 
L 984 0 
L 422 0 
z
" transform="scale(0.015625)"/>
      <path id="ArialMT-73" d="M 197 991 
L 753 1078 
Q 800 744 1014 566 
Q 1228 388 1613 388 
Q 2000 388 2187 545 
Q 2375 703 2375 916 
Q 2375 1106 2209 1216 
Q 2094 1291 1634 1406 
Q 1016 1563 777 1677 
Q 538 1791 414 1992 
Q 291 2194 291 2438 
Q 291 2659 392 2848 
Q 494 3038 669 3163 
Q 800 3259 1026 3326 
Q 1253 3394 1513 3394 
Q 1903 3394 2198 3281 
Q 2494 3169 2634 2976 
Q 2775 2784 2828 2463 
L 2278 2388 
Q 2241 2644 2061 2787 
Q 1881 2931 1553 2931 
Q 1166 2931 1000 2803 
Q 834 2675 834 2503 
Q 834 2394 903 2306 
Q 972 2216 1119 2156 
Q 1203 2125 1616 2013 
Q 2213 1853 2448 1751 
Q 2684 1650 2818 1456 
Q 2953 1263 2953 975 
Q 2953 694 2789 445 
Q 2625 197 2315 61 
Q 2006 -75 1616 -75 
Q 969 -75 630 194 
Q 291 463 197 991 
z
" transform="scale(0.015625)"/>
      <path id="ArialMT-3a" d="M 578 2678 
L 578 3319 
L 1219 3319 
L 1219 2678 
L 578 2678 
z
M 578 0 
L 578 641 
L 1219 641 
L 1219 0 
L 578 0 
z
" transform="scale(0.015625)"/>
      <path id="ArialMT-57" d="M 1294 0 
L 78 4581 
L 700 4581 
L 1397 1578 
Q 1509 1106 1591 641 
Q 1766 1375 1797 1488 
L 2669 4581 
L 3400 4581 
L 4056 2263 
Q 4303 1400 4413 641 
Q 4500 1075 4641 1638 
L 5359 4581 
L 5969 4581 
L 4713 0 
L 4128 0 
L 3163 3491 
Q 3041 3928 3019 4028 
Q 2947 3713 2884 3491 
L 1913 0 
L 1294 0 
z
" transform="scale(0.015625)"/>
      <path id="ArialMT-6b" d="M 425 0 
L 425 4581 
L 988 4581 
L 988 1969 
L 2319 3319 
L 3047 3319 
L 1778 2088 
L 3175 0 
L 2481 0 
L 1384 1697 
L 988 1316 
L 988 0 
L 425 0 
z
" transform="scale(0.015625)"/>
      <path id="ArialMT-67" d="M 319 -275 
L 866 -356 
Q 900 -609 1056 -725 
Q 1266 -881 1628 -881 
Q 2019 -881 2231 -725 
Q 2444 -569 2519 -288 
Q 2563 -116 2559 434 
Q 2191 0 1641 0 
Q 956 0 581 494 
Q 206 988 206 1678 
Q 206 2153 378 2554 
Q 550 2956 876 3175 
Q 1203 3394 1644 3394 
Q 2231 3394 2613 2919 
L 2613 3319 
L 3131 3319 
L 3131 450 
Q 3131 -325 2973 -648 
Q 2816 -972 2473 -1159 
Q 2131 -1347 1631 -1347 
Q 1038 -1347 672 -1080 
Q 306 -813 319 -275 
z
M 784 1719 
Q 784 1066 1043 766 
Q 1303 466 1694 466 
Q 2081 466 2343 764 
Q 2606 1063 2606 1700 
Q 2606 2309 2336 2618 
Q 2066 2928 1684 2928 
Q 1309 2928 1046 2623 
Q 784 2319 784 1719 
z
" transform="scale(0.015625)"/>
      <path id="ArialMT-48" d="M 513 0 
L 513 4581 
L 1119 4581 
L 1119 2700 
L 3500 2700 
L 3500 4581 
L 4106 4581 
L 4106 0 
L 3500 0 
L 3500 2159 
L 1119 2159 
L 1119 0 
L 513 0 
z
" transform="scale(0.015625)"/>
      <path id="ArialMT-6d" d="M 422 0 
L 422 3319 
L 925 3319 
L 925 2853 
Q 1081 3097 1340 3245 
Q 1600 3394 1931 3394 
Q 2300 3394 2536 3241 
Q 2772 3088 2869 2813 
Q 3263 3394 3894 3394 
Q 4388 3394 4653 3120 
Q 4919 2847 4919 2278 
L 4919 0 
L 4359 0 
L 4359 2091 
Q 4359 2428 4304 2576 
Q 4250 2725 4106 2815 
Q 3963 2906 3769 2906 
Q 3419 2906 3187 2673 
Q 2956 2441 2956 1928 
L 2956 0 
L 2394 0 
L 2394 2156 
Q 2394 2531 2256 2718 
Q 2119 2906 1806 2906 
Q 1569 2906 1367 2781 
Q 1166 2656 1075 2415 
Q 984 2175 984 1722 
L 984 0 
L 422 0 
z
" transform="scale(0.015625)"/>
      <path id="ArialMT-28" d="M 1497 -1347 
Q 1031 -759 709 28 
Q 388 816 388 1659 
Q 388 2403 628 3084 
Q 909 3875 1497 4659 
L 1900 4659 
Q 1522 4009 1400 3731 
Q 1209 3300 1100 2831 
Q 966 2247 966 1656 
Q 966 153 1900 -1347 
L 1497 -1347 
z
" transform="scale(0.015625)"/>
      <path id="ArialMT-52" d="M 503 0 
L 503 4581 
L 2534 4581 
Q 3147 4581 3465 4457 
Q 3784 4334 3975 4021 
Q 4166 3709 4166 3331 
Q 4166 2844 3850 2509 
Q 3534 2175 2875 2084 
Q 3116 1969 3241 1856 
Q 3506 1613 3744 1247 
L 4541 0 
L 3778 0 
L 3172 953 
Q 2906 1366 2734 1584 
Q 2563 1803 2427 1890 
Q 2291 1978 2150 2013 
Q 2047 2034 1813 2034 
L 1109 2034 
L 1109 0 
L 503 0 
z
M 1109 2559 
L 2413 2559 
Q 2828 2559 3062 2645 
Q 3297 2731 3419 2920 
Q 3541 3109 3541 3331 
Q 3541 3656 3305 3865 
Q 3069 4075 2559 4075 
L 1109 4075 
L 1109 2559 
z
" transform="scale(0.015625)"/>
      <path id="ArialMT-68" d="M 422 0 
L 422 4581 
L 984 4581 
L 984 2938 
Q 1378 3394 1978 3394 
Q 2347 3394 2619 3248 
Q 2891 3103 3008 2847 
Q 3125 2591 3125 2103 
L 3125 0 
L 2563 0 
L 2563 2103 
Q 2563 2525 2380 2717 
Q 2197 2909 1863 2909 
Q 1613 2909 1392 2779 
Q 1172 2650 1078 2428 
Q 984 2206 984 1816 
L 984 0 
L 422 0 
z
" transform="scale(0.015625)"/>
      <path id="ArialMT-43" d="M 3763 1606 
L 4369 1453 
Q 4178 706 3683 314 
Q 3188 -78 2472 -78 
Q 1731 -78 1267 223 
Q 803 525 561 1097 
Q 319 1669 319 2325 
Q 319 3041 592 3573 
Q 866 4106 1370 4382 
Q 1875 4659 2481 4659 
Q 3169 4659 3637 4309 
Q 4106 3959 4291 3325 
L 3694 3184 
Q 3534 3684 3231 3912 
Q 2928 4141 2469 4141 
Q 1941 4141 1586 3887 
Q 1231 3634 1087 3207 
Q 944 2781 944 2328 
Q 944 1744 1114 1308 
Q 1284 872 1643 656 
Q 2003 441 2422 441 
Q 2931 441 3284 734 
Q 3638 1028 3763 1606 
z
" transform="scale(0.015625)"/>
      <path id="ArialMT-26" d="M 3041 541 
Q 2763 231 2434 76 
Q 2106 -78 1725 -78 
Q 1022 -78 609 397 
Q 275 784 275 1263 
Q 275 1688 548 2030 
Q 822 2372 1366 2631 
Q 1056 2988 953 3209 
Q 850 3431 850 3638 
Q 850 4050 1173 4354 
Q 1497 4659 1988 4659 
Q 2456 4659 2754 4371 
Q 3053 4084 3053 3681 
Q 3053 3028 2188 2566 
L 3009 1519 
Q 3150 1794 3228 2156 
L 3813 2031 
Q 3663 1431 3406 1044 
Q 3722 625 4122 341 
L 3744 -106 
Q 3403 113 3041 541 
z
M 1897 2928 
Q 2263 3144 2370 3306 
Q 2478 3469 2478 3666 
Q 2478 3900 2329 4048 
Q 2181 4197 1959 4197 
Q 1731 4197 1579 4050 
Q 1428 3903 1428 3691 
Q 1428 3584 1483 3467 
Q 1538 3350 1647 3219 
L 1897 2928 
z
M 2688 984 
L 1656 2263 
Q 1200 1991 1040 1758 
Q 881 1525 881 1297 
Q 881 1019 1103 719 
Q 1325 419 1731 419 
Q 1984 419 2254 576 
Q 2525 734 2688 984 
z
" transform="scale(0.015625)"/>
      <path id="ArialMT-29" d="M 791 -1347 
L 388 -1347 
Q 1322 153 1322 1656 
Q 1322 2244 1188 2822 
Q 1081 3291 891 3722 
Q 769 4003 388 4659 
L 791 4659 
Q 1378 3875 1659 3084 
Q 1900 2403 1900 1659 
Q 1900 816 1576 28 
Q 1253 -759 791 -1347 
z
" transform="scale(0.015625)"/>
     </defs>
     <use xlink:href="#ArialMT-53"/>
     <use xlink:href="#ArialMT-70" transform="translate(66.699219 0)"/>
     <use xlink:href="#ArialMT-61" transform="translate(122.314453 0)"/>
     <use xlink:href="#ArialMT-74" transform="translate(177.929688 0)"/>
     <use xlink:href="#ArialMT-69" transform="translate(205.712891 0)"/>
     <use xlink:href="#ArialMT-61" transform="translate(227.929688 0)"/>
     <use xlink:href="#ArialMT-6c" transform="translate(283.544922 0)"/>
     <use xlink:href="#ArialMT-20" transform="translate(305.761719 0)"/>
     <use xlink:href="#ArialMT-41" transform="translate(328.044922 0)"/>
     <use xlink:href="#ArialMT-77" transform="translate(392.994141 0)"/>
     <use xlink:href="#ArialMT-61" transform="translate(465.210938 0)"/>
     <use xlink:href="#ArialMT-72" transform="translate(520.826172 0)"/>
     <use xlink:href="#ArialMT-65" transform="translate(554.126953 0)"/>
     <use xlink:href="#ArialMT-6e" transform="translate(609.742188 0)"/>
     <use xlink:href="#ArialMT-65" transform="translate(665.357422 0)"/>
     <use xlink:href="#ArialMT-73" transform="translate(720.972656 0)"/>
     <use xlink:href="#ArialMT-73" transform="translate(770.972656 0)"/>
     <use xlink:href="#ArialMT-3a" transform="translate(820.972656 0)"/>
     <use xlink:href="#ArialMT-20" transform="translate(848.755859 0)"/>
     <use xlink:href="#ArialMT-57" transform="translate(876.539062 0)"/>
     <use xlink:href="#ArialMT-61" transform="translate(967.173828 0)"/>
     <use xlink:href="#ArialMT-6c" transform="translate(1022.789062 0)"/>
     <use xlink:href="#ArialMT-6b" transform="translate(1045.005859 0)"/>
     <use xlink:href="#ArialMT-69" transform="translate(1095.005859 0)"/>
     <use xlink:href="#ArialMT-6e" transform="translate(1117.222656 0)"/>
     <use xlink:href="#ArialMT-67" transform="translate(1172.837891 0)"/>
     <use xlink:href="#ArialMT-20" transform="translate(1228.453125 0)"/>
     <use xlink:href="#ArialMT-48" transform="translate(1256.236328 0)"/>
     <use xlink:href="#ArialMT-65" transform="translate(1328.453125 0)"/>
     <use xlink:href="#ArialMT-61" transform="translate(1384.068359 0)"/>
     <use xlink:href="#ArialMT-74" transform="translate(1439.683594 0)"/>
     <use xlink:href="#ArialMT-6d" transform="translate(1467.466797 0)"/>
     <use xlink:href="#ArialMT-61" transform="translate(1550.767578 0)"/>
     <use xlink:href="#ArialMT-70" transform="translate(1606.382812 0)"/>
     <use xlink:href="#ArialMT-20" transform="translate(1661.998047 0)"/>
     <use xlink:href="#ArialMT-28" transform="translate(1689.78125 0)"/>
     <use xlink:href="#ArialMT-52" transform="translate(1723.082031 0)"/>
     <use xlink:href="#ArialMT-69" transform="translate(1795.298828 0)"/>
     <use xlink:href="#ArialMT-67" transform="translate(1817.515625 0)"/>
     <use xlink:href="#ArialMT-68" transform="translate(1873.130859 0)"/>
     <use xlink:href="#ArialMT-74" transform="translate(1928.746094 0)"/>
     <use xlink:href="#ArialMT-20" transform="translate(1956.529297 0)"/>
     <use xlink:href="#ArialMT-43" transform="translate(1984.3125 0)"/>
     <use xlink:href="#ArialMT-68" transform="translate(2056.529297 0)"/>
     <use xlink:href="#ArialMT-61" transform="translate(2112.144531 0)"/>
     <use xlink:href="#ArialMT-6e" transform="translate(2167.759766 0)"/>
     <use xlink:href="#ArialMT-6e" transform="translate(2223.375 0)"/>
     <use xlink:href="#ArialMT-65" transform="translate(2278.990234 0)"/>
     <use xlink:href="#ArialMT-6c" transform="translate(2334.605469 0)"/>
     <use xlink:href="#ArialMT-20" transform="translate(2356.822266 0)"/>
     <use xlink:href="#ArialMT-26" transform="translate(2384.605469 0)"/>
     <use xlink:href="#ArialMT-20" transform="translate(2451.304688 0)"/>
     <use xlink:href="#ArialMT-43" transform="translate(2479.087891 0)"/>
     <use xlink:href="#ArialMT-65" transform="translate(2551.304688 0)"/>
     <use xlink:href="#ArialMT-6e" transform="translate(2606.919922 0)"/>
     <use xlink:href="#ArialMT-74" transform="translate(2662.535156 0)"/>
     <use xlink:href="#ArialMT-72" transform="translate(2690.318359 0)"/>
     <use xlink:href="#ArialMT-61" transform="translate(2723.619141 0)"/>
     <use xlink:href="#ArialMT-6c" transform="translate(2779.234375 0)"/>
     <use xlink:href="#ArialMT-29" transform="translate(2801.451172 0)"/>
    </g>
   </g>
  </g>
 </g>
 <defs>
  <clipPath id="pb2d5c1f106">
   <rect x="10.8" y="25.49625" width="554.4" height="323.70375"/>
  </clipPath>
 </defs>
</svg>
